ply
format ascii 1.0
comment Created by Blender 2.83.4 - www.blender.org, source file: 'nisse-ske.blend'
element vertex 253
property float x
property float y
property float z
property uchar red
property uchar green
property uchar blue
property uchar alpha
element face 251
property list uchar uint vertex_indices
end_header
2.343750 0.640000 0.000000 183 156 66 255
2.468750 0.580000 0.000000 168 171 174 255
2.328125 0.580000 0.000000 198 172 93 255
2.453125 0.640000 0.000000 183 156 66 255
2.250000 0.640000 0.000000 198 172 93 255
2.343750 0.680000 0.000000 198 172 93 255
2.453125 0.660000 0.000000 198 172 93 255
1.671875 0.780000 0.000000 191 196 207 255
1.562500 0.600000 0.000000 191 196 207 255
1.812500 0.600000 0.000000 191 196 207 255
1.296875 0.740000 0.000000 191 196 207 255
1.562500 0.820000 0.000000 191 196 207 255
1.468750 0.860000 0.000000 191 196 207 255
1.375000 0.880000 0.000000 191 196 207 255
1.468750 1.040000 0.000000 168 171 174 255
1.593750 0.940000 0.000000 191 196 207 255
2.015625 0.920000 0.000000 191 196 207 255
1.921875 0.940000 0.000000 191 196 207 255
2.531250 1.040000 0.000000 191 196 207 255
2.640625 1.100000 0.000000 191 196 207 255
2.171875 1.140000 0.000000 191 196 207 255
2.187500 1.080000 0.000000 191 196 207 255
2.656250 1.300000 0.000000 191 196 207 255
2.187500 1.320000 0.000000 191 196 207 255
2.531250 1.440000 0.000000 168 171 174 255
2.062500 1.460000 0.000000 168 171 174 255
1.812500 0.600000 0.000000 198 172 93 255
1.765625 0.660000 0.000000 198 172 93 255
2.015625 0.680000 0.000000 198 172 93 255
2.156250 0.580000 0.000000 198 172 93 255
2.250000 0.680000 0.000000 198 172 93 255
1.984375 0.700000 0.000000 198 172 93 255
2.171875 0.660000 0.000000 198 172 93 255
2.343750 0.700000 0.000000 198 172 93 255
2.296875 0.780000 0.000000 198 172 93 255
2.343750 0.720000 0.000000 198 172 93 255
1.671875 0.780000 0.000000 198 172 93 255
2.343750 0.720000 0.000000 198 172 93 255
2.343750 0.720000 0.000000 198 172 93 255
2.250000 0.680000 0.000000 198 172 93 255
2.343750 0.720000 0.000000 198 172 93 255
2.453125 0.720000 0.000000 198 172 93 255
2.453125 0.720000 0.000000 198 172 93 255
2.437500 0.780000 0.000000 198 172 93 255
2.062500 0.740000 0.000000 198 172 93 255
2.187500 0.720000 0.000000 198 172 93 255
2.593750 0.900000 0.000000 198 172 93 255
1.750000 0.840000 0.000000 198 172 93 255
1.562500 0.820000 0.000000 198 172 93 255
1.718750 0.860000 0.000000 198 172 93 255
2.015625 0.920000 0.000000 198 172 93 255
1.593750 0.940000 0.000000 183 156 66 255
2.187500 1.080000 0.000000 198 172 93 255
2.531250 1.040000 0.000000 0 255 0 255
2.421875 0.700000 0.020000 144 159 174 255
2.421875 0.700000 0.020000 144 159 174 255
2.453125 0.700000 0.020000 144 159 174 255
2.421875 0.700000 0.020000 144 159 174 255
2.453125 0.720000 0.020000 144 159 174 255
2.437500 0.680000 0.020000 175 153 167 255
2.453125 0.680000 0.020000 144 159 174 255
1.156250 0.080000 0.020000 186 62 12 255
1.890625 0.020000 0.020000 186 62 12 255
1.203125 0.340000 0.020000 186 62 12 255
2.375000 0.180000 0.020000 186 62 12 255
2.468750 0.500000 0.020000 186 62 12 255
1.812500 0.520000 0.020000 186 62 12 255
1.296875 0.560000 0.020000 157 52 13 255
1.093750 0.440000 0.020000 157 52 13 255
0.734375 0.360000 0.020000 186 62 12 255
1.562500 0.540000 0.020000 186 62 12 255
0.546875 0.360000 0.020000 186 62 12 255
0.781250 0.460000 0.020000 186 62 12 255
0.578125 0.560000 0.020000 186 62 12 255
0.671875 0.560000 0.020000 157 52 13 255
0.515625 0.620000 0.020000 186 62 12 255
0.781250 0.720000 0.020000 186 62 12 255
2.468750 0.580000 0.020000 186 62 12 255
1.812500 0.600000 0.020000 186 62 12 255
1.562500 0.600000 0.020000 186 62 12 255
1.296875 0.560000 0.020000 157 52 13 255
1.296875 0.740000 0.020000 186 62 12 255
1.562500 0.540000 0.020000 186 62 12 255
1.812500 0.600000 0.020000 186 62 12 255
1.812500 0.520000 0.020000 186 62 12 255
2.453125 0.660000 0.020000 191 196 207 255
2.343750 0.680000 0.020000 191 196 207 255
2.421875 0.700000 0.020000 191 196 207 255
2.343750 0.700000 0.020000 191 196 207 255
2.421875 0.700000 0.020000 191 196 207 255
2.437500 0.680000 0.020000 191 196 207 255
2.453125 0.680000 0.020000 191 196 207 255
2.093750 0.700000 0.020000 191 196 207 255
2.015625 0.680000 0.020000 191 196 207 255
1.984375 0.700000 0.020000 191 196 207 255
2.093750 0.700000 0.020000 191 196 207 255
2.171875 0.660000 0.020000 191 196 207 255
2.156250 0.680000 0.020000 191 196 207 255
2.171875 0.700000 0.020000 191 196 207 255
2.250000 0.680000 0.020000 191 196 207 255
2.156250 0.720000 0.020000 191 196 207 255
2.187500 0.720000 0.020000 191 196 207 255
2.343750 0.720000 0.020000 191 196 207 255
2.421875 0.700000 0.020000 191 196 207 255
2.453125 0.720000 0.020000 191 196 207 255
2.453125 0.720000 0.020000 191 196 207 255
2.093750 0.720000 0.020000 191 196 207 255
2.062500 0.740000 0.020000 191 196 207 255
2.046875 0.700000 0.040000 144 159 174 255
2.046875 0.740000 0.040000 144 159 174 255
2.125000 0.700000 0.040000 144 159 174 255
2.093750 0.700000 0.040000 144 159 174 255
2.156250 0.680000 0.040000 144 159 174 255
2.171875 0.700000 0.040000 144 159 174 255
2.171875 0.740000 0.040000 144 159 174 255
2.421875 0.700000 0.040000 144 159 174 255
2.421875 0.700000 0.040000 144 159 174 255
2.453125 0.700000 0.040000 144 159 174 255
2.421875 0.720000 0.040000 144 159 174 255
2.453125 0.720000 0.040000 144 159 174 255
2.437500 0.680000 0.040000 175 153 167 255
2.453125 0.680000 0.040000 144 159 174 255
1.843750 1.400000 0.040000 186 62 12 255
2.140625 1.440000 0.040000 186 62 12 255
1.984375 1.380000 0.040000 186 62 12 255
2.203125 1.560000 0.040000 186 62 12 255
1.718750 1.480000 0.040000 186 62 12 255
2.218750 1.720000 0.040000 186 62 12 255
1.593750 1.660000 0.040000 186 62 12 255
2.156250 1.840000 0.040000 186 62 12 255
1.500000 1.860000 0.040000 186 62 12 255
2.046875 2.100000 0.040000 186 62 12 255
1.812500 2.440000 0.040000 186 62 12 255
1.468750 2.080000 0.040000 186 62 12 255
1.484375 2.240000 0.040000 186 62 12 255
1.866784 2.540000 0.040000 186 62 12 255
1.515625 2.600000 0.040000 186 62 12 255
1.898034 2.720000 0.040000 186 62 12 255
1.578125 2.880000 0.040000 186 62 12 255
1.929284 2.940000 0.040000 186 62 12 255
1.609375 3.080000 0.040000 186 62 12 255
1.921875 3.080000 0.040000 186 62 12 255
1.640625 3.280000 0.040000 191 196 207 255
1.968750 3.280000 0.040000 191 196 207 255
1.718750 3.480000 0.040000 191 196 207 255
1.968750 3.500000 0.040000 191 196 207 255
0.968750 2.320000 0.060000 138 111 113 255
1.390625 1.760000 0.060000 175 153 167 255
1.218750 1.700000 0.060000 138 111 113 255
1.171875 2.320000 0.060000 175 153 167 255
2.390625 1.440000 0.060000 175 153 167 255
1.859375 1.320000 0.060000 175 153 167 255
1.609375 1.420000 0.060000 138 111 113 255
2.203125 1.320000 0.060000 175 153 167 255
1.718750 1.500000 0.060000 175 153 167 255
2.718750 1.740000 0.060000 175 153 167 255
2.921875 2.320000 0.060000 175 153 167 255
1.187500 2.760000 0.060000 175 153 167 255
1.015625 2.800000 0.060000 138 111 113 255
2.968750 2.660000 0.060000 175 153 167 255
1.218750 3.060000 0.060000 175 153 167 255
1.046875 3.100000 0.060000 138 111 113 255
1.234375 3.100000 0.060000 175 153 167 255
2.796875 3.120000 0.060000 175 153 167 255
1.093750 3.200000 0.060000 138 111 113 255
1.250000 3.220000 0.060000 138 111 113 255
2.734375 3.220000 0.060000 138 111 113 255
1.343750 4.060000 0.080000 157 52 13 255
2.125000 4.060000 0.080000 186 62 12 255
2.140625 3.640000 0.080000 186 62 12 255
1.937500 4.580000 0.080000 157 108 103 255
1.328125 4.580000 0.080000 157 108 103 255
1.359375 4.740000 0.080000 157 108 103 255
1.968750 4.760000 0.080000 157 108 103 255
2.125000 4.640000 0.080000 157 108 103 255
1.359375 4.800000 0.080000 157 108 103 255
2.156250 4.740000 0.080000 157 108 103 255
1.968750 4.800000 0.080000 157 108 103 255
2.156250 4.800000 0.080000 157 108 103 255
2.234375 3.160000 0.080000 186 62 12 255
1.156250 3.140000 0.080000 186 62 12 255
1.328125 4.520000 0.080000 186 62 12 255
1.937500 4.520000 0.080000 186 62 12 255
2.156250 3.640000 0.100000 157 52 13 255
2.750000 3.140000 0.100000 186 62 12 255
2.156250 3.140000 0.100000 157 52 13 255
2.875000 3.600000 0.100000 186 62 12 255
2.328125 4.520000 0.100000 157 52 13 255
2.828125 4.560000 0.100000 157 108 103 255
2.843750 4.500000 0.100000 186 62 12 255
2.328125 4.580000 0.100000 157 108 103 255
2.359375 4.740000 0.100000 157 108 103 255
2.875000 4.740000 0.100000 157 108 103 255
3.015625 4.620000 0.100000 157 108 103 255
2.875000 4.780000 0.100000 157 108 103 255
2.359375 4.800000 0.100000 157 108 103 255
3.062500 4.740000 0.100000 157 108 103 255
3.062500 4.780000 0.100000 157 108 103 255
2.859375 4.000000 0.100000 186 62 12 255
2.328125 4.060000 0.100000 157 52 13 255
1.593750 1.640000 0.120000 186 62 12 255
2.078125 1.580000 0.120000 186 62 12 255
1.796875 1.540000 0.120000 186 62 12 255
2.234375 1.740000 0.120000 186 62 12 255
1.625000 1.840000 0.120000 186 62 12 255
2.265625 1.880000 0.120000 186 62 12 255
2.220004 2.094554 0.120000 186 62 12 255
1.693173 2.108111 0.120000 186 62 12 255
1.783758 2.270908 0.120000 186 62 12 255
2.000000 2.360000 0.120000 186 62 12 255
2.346477 2.130004 0.120000 186 62 12 255
3.000000 2.400000 0.120000 186 62 12 255
2.906250 2.180000 0.120000 186 62 12 255
2.984375 2.180000 0.120000 186 62 12 255
3.078125 2.400000 0.120000 186 62 12 255
3.140625 2.160000 0.120000 191 196 207 255
3.234375 2.400000 0.120000 191 196 207 255
3.359375 2.200000 0.120000 191 196 207 255
3.421875 2.360000 0.120000 191 196 207 255
3.342957 1.710118 0.000000 169 128 41 255
3.116888 2.491243 0.000000 169 127 43 255
3.228894 1.691592 0.000000 170 128 45 255
1.190177 3.462905 0.080000 186 62 12 255
1.243680 3.723747 0.080000 170 57 13 255
2.986066 0.895704 0.000000 168 126 37 255
3.064470 0.714977 0.000000 198 172 92 255
3.089657 0.908830 0.000000 183 156 66 255
3.842026 0.815756 0.000000 186 160 81 255
3.617252 1.082650 0.000000 198 172 93 255
3.061871 0.443832 0.000000 170 129 46 255
3.237425 0.205773 0.000000 169 128 42 255
3.146432 0.469518 0.000000 198 172 93 255
3.393173 0.124813 0.000000 168 126 36 255
3.413568 0.192900 0.000000 198 172 93 255
3.615819 0.155999 0.000000 183 156 66 255
3.288498 0.270544 0.000000 198 172 93 255
2.994405 0.697030 0.000000 168 127 39 255
3.291123 1.172533 0.000000 170 128 46 255
3.074347 1.079362 0.000000 168 126 37 255
3.193339 1.051822 0.000000 193 167 84 255
3.660116 1.161410 0.000000 168 126 36 255
3.426083 1.191436 0.000000 168 126 36 255
3.370760 1.109980 0.000000 198 172 93 255
3.795459 1.009074 0.000000 168 126 36 255
3.846722 0.553765 0.000000 183 156 66 255
3.743330 0.276634 0.000000 183 156 66 255
3.242078 2.110986 -0.100000 191 196 207 255
3.134672 2.259183 -0.100000 168 171 174 255
3.114858 2.167801 -0.100000 168 171 174 255
3.267039 2.185884 -0.100000 191 196 207 255
3.231449 2.506209 0.000000 171 130 49 255
2.849975 4.061570 0.000000 168 126 37 255
3.032997 4.087205 0.000000 175 137 72 255
3 0 1 2
3 0 3 1
3 0 4 5
3 0 6 3
3 0 5 6
3 7 8 9
3 7 10 8
3 11 10 7
3 11 12 10
3 12 13 10
3 13 12 14
3 15 14 12
3 15 12 11
3 15 16 17
3 15 17 14
3 18 19 20
3 18 20 21
3 21 17 16
3 21 20 17
3 20 14 17
3 20 19 22
3 20 22 23
3 20 23 14
3 23 24 25
3 23 25 14
3 23 22 24
3 26 27 28
3 26 28 29
3 4 0 2
3 4 2 29
3 4 30 5
3 27 31 28
3 32 4 29
3 32 30 4
3 28 32 29
3 30 33 5
3 30 34 35
3 31 27 36
3 37 38 39
3 40 33 30
3 41 38 37
3 42 35 43
3 44 31 36
3 36 34 44
3 34 30 45
3 34 45 44
3 34 43 35
3 43 34 46
3 47 36 48
3 47 34 36
3 47 49 50
3 47 50 46
3 49 51 50
3 49 48 51
3 49 47 48
3 46 34 47
3 46 50 52
3 52 53 46
3 54 55 56
3 56 55 57
3 56 57 58
3 59 54 56
3 59 56 60
3 61 62 63
3 64 65 66
3 64 66 62
3 63 67 68
3 63 69 61
3 63 70 67
3 71 61 69
3 69 68 72
3 69 63 68
3 69 73 71
3 66 70 62
3 70 63 62
3 73 69 72
3 73 72 74
3 73 75 71
3 73 76 75
3 77 66 65
3 77 78 66
3 79 80 81
3 79 82 80
3 83 84 82
3 83 82 79
3 76 73 74
3 85 86 87
3 86 88 89
3 86 89 87
3 90 91 85
3 92 93 94
3 92 95 93
3 95 96 93
3 95 97 96
3 98 96 97
3 98 99 96
3 98 100 101
3 98 101 99
3 89 88 102
3 89 102 103
3 87 90 85
3 103 102 104
3 103 104 105
3 100 106 107
3 100 107 101
3 107 92 94
3 107 106 92
3 108 109 110
3 111 108 110
3 110 112 111
3 110 113 112
3 110 114 113
3 115 116 117
3 117 116 118
3 117 118 119
3 109 114 110
3 120 115 117
3 120 117 121
3 122 123 124
3 122 125 123
3 126 125 122
3 126 127 125
3 127 126 128
3 127 128 129
3 129 130 131
3 130 129 128
3 131 130 132
3 132 130 133
3 132 133 134
3 132 134 135
3 135 134 136
3 135 136 137
3 136 138 139
3 136 139 137
3 138 140 141
3 138 141 139
3 140 142 143
3 140 143 141
3 142 144 145
3 142 145 143
3 146 147 148
3 146 149 147
3 150 151 152
3 150 153 151
3 154 155 152
3 154 147 156
3 154 156 155
3 155 150 152
3 147 152 148
3 147 154 152
3 147 149 156
3 149 157 156
3 157 146 158
3 157 149 146
3 157 159 156
3 157 160 159
3 160 158 161
3 160 157 158
3 160 162 163
3 160 163 159
3 162 161 164
3 162 164 165
3 162 165 166
3 162 166 163
3 162 160 161
3 167 168 169
3 170 171 172
3 170 172 173
3 174 170 173
3 173 172 175
3 173 176 174
3 173 175 177
3 173 177 178
3 173 178 176
3 169 179 180
3 181 171 170
3 181 170 182
3 182 167 181
3 182 168 167
3 183 184 185
3 183 186 184
3 187 188 189
3 187 190 188
3 188 190 191
3 188 191 192
3 193 188 192
3 191 194 192
3 191 195 194
3 192 196 193
3 192 194 197
3 192 197 196
3 198 183 199
3 198 186 183
3 189 199 187
3 189 198 199
3 200 201 202
3 200 203 201
3 203 200 204
3 203 204 205
3 204 206 205
3 204 207 206
3 206 208 209
3 206 209 210
3 210 209 211
3 210 211 212
3 211 213 212
3 211 214 213
3 214 215 213
3 214 216 215
3 216 217 215
3 216 218 217
3 219 220 221
3 169 222 223
3 223 167 169
3 169 180 222
3 224 225 226
3 227 228 225
3 229 230 231
3 230 232 233
3 232 234 233
3 235 230 233
3 224 236 225
3 236 229 225
3 237 238 239
3 238 224 226
3 239 238 226
3 240 241 228
3 241 237 242
3 228 243 240
3 242 228 241
3 230 235 231
3 239 242 237
3 229 231 225
3 227 243 228
3 228 242 225
3 242 239 226
3 225 242 226
3 225 231 227
3 231 235 244
3 235 233 245
3 233 234 245
3 245 244 235
3 244 227 231
3 246 247 248
3 246 249 247
3 219 250 220
3 241 219 221
3 241 221 237
3 220 250 251
3 251 250 252
3 206 207 208
