ply
format ascii 1.0
comment Created by Blender 2.83.4 - www.blender.org, source file: 'gullerod.blend'
element vertex 273
property float x
property float y
property float z
property float nx
property float ny
property float nz
property uchar red
property uchar green
property uchar blue
property uchar alpha
element face 251
property list uchar uint vertex_indices
end_header
2.343750 0.640000 0.000000 0.000000 0.000000 -1.000000 183 156 66 255
2.468750 0.580000 0.000000 0.000000 0.000000 -1.000000 168 171 174 255
2.328125 0.580000 0.000000 0.000000 0.000000 -1.000000 198 172 93 255
2.453125 0.640000 0.000000 0.000000 0.000000 -1.000000 183 156 66 255
2.250000 0.640000 0.000000 0.000000 -0.000000 -1.000000 198 172 93 255
2.343750 0.680000 0.000000 0.000000 -0.000000 -1.000000 198 172 93 255
2.453125 0.660000 0.000000 -0.000000 0.000000 -1.000000 198 172 93 255
1.671875 0.780000 0.000000 0.000000 -0.000000 1.000000 191 196 207 255
1.562500 0.600000 0.000000 0.000000 -0.000000 1.000000 191 196 207 255
1.812500 0.600000 0.000000 0.000000 -0.000000 1.000000 191 196 207 255
1.296875 0.740000 0.000000 0.000000 -0.000000 1.000000 191 196 207 255
1.562500 0.820000 0.000000 0.000000 -0.000000 1.000000 191 196 207 255
1.468750 0.860000 0.000000 -0.000000 0.000000 1.000000 191 196 207 255
1.375000 0.880000 0.000000 -0.000000 0.000000 1.000000 191 196 207 255
1.468750 1.040000 0.000000 0.000000 0.000000 1.000000 168 171 174 255
1.593750 0.940000 0.000000 -0.000000 0.000000 1.000000 191 196 207 255
2.015625 0.920000 0.000000 0.000000 0.000000 1.000000 191 196 207 255
1.921875 0.940000 0.000000 0.000000 0.000000 1.000000 191 196 207 255
2.531250 1.040000 0.000000 0.000000 0.000000 1.000000 191 196 207 255
2.640625 1.100000 0.000000 0.000000 0.000000 1.000000 191 196 207 255
2.171875 1.140000 0.000000 0.000000 0.000000 1.000000 191 196 207 255
2.187500 1.080000 0.000000 -0.000000 -0.000000 1.000000 191 196 207 255
2.656250 1.300000 0.000000 0.000000 0.000000 1.000000 191 196 207 255
2.187500 1.320000 0.000000 0.000000 0.000000 1.000000 191 196 207 255
2.531250 1.440000 0.000000 0.000000 0.000000 1.000000 168 171 174 255
2.062500 1.460000 0.000000 0.000000 0.000000 1.000000 168 171 174 255
1.812500 0.600000 0.000000 0.000000 -0.000000 -1.000000 198 172 93 255
1.765625 0.660000 0.000000 0.000000 -0.000000 -1.000000 198 172 93 255
2.015625 0.680000 0.000000 0.000000 -0.000000 -1.000000 198 172 93 255
2.156250 0.580000 0.000000 -0.000000 0.000000 -1.000000 198 172 93 255
2.250000 0.680000 0.000000 -0.000000 -0.000000 -1.000000 198 172 93 255
1.984375 0.700000 0.000000 -0.000000 0.000000 -1.000000 198 172 93 255
2.171875 0.660000 0.000000 0.000000 0.000000 -1.000000 198 172 93 255
2.343750 0.700000 0.000000 -0.000000 0.000000 -1.000000 198 172 93 255
2.296875 0.780000 0.000000 -0.000000 0.000000 -1.000000 198 172 93 255
2.343750 0.720000 0.000000 -0.000000 0.000000 -1.000000 198 172 93 255
1.671875 0.780000 0.000000 0.000000 0.000000 -1.000000 198 172 93 255
2.343750 0.720000 0.000000 0.000000 0.000000 0.000000 198 172 93 255
2.343750 0.720000 0.000000 0.000000 0.000000 0.000000 198 172 93 255
2.250000 0.680000 0.000000 0.000000 0.000000 0.000000 198 172 93 255
2.343750 0.720000 0.000000 0.000000 0.000000 -1.000000 198 172 93 255
2.453125 0.720000 0.000000 0.000000 0.000000 0.000000 198 172 93 255
2.453125 0.720000 0.000000 0.000000 -0.000000 -1.000000 198 172 93 255
2.437500 0.780000 0.000000 0.000000 -0.000000 -1.000000 198 172 93 255
2.062500 0.740000 0.000000 0.000000 0.000000 -1.000000 198 172 93 255
2.187500 0.720000 0.000000 0.000000 0.000000 -1.000000 198 172 93 255
2.593750 0.900000 0.000000 0.000000 -0.000000 -1.000000 198 172 93 255
1.750000 0.840000 0.000000 0.000000 0.000000 -1.000000 198 172 93 255
1.562500 0.820000 0.000000 0.000000 0.000000 -1.000000 198 172 93 255
1.718750 0.860000 0.000000 0.000000 -0.000000 -1.000000 198 172 93 255
2.015625 0.920000 0.000000 0.000000 -0.000000 -1.000000 198 172 93 255
1.593750 0.940000 0.000000 -0.000000 -0.000000 -1.000000 183 156 66 255
2.187500 1.080000 0.000000 0.000000 -0.000000 -1.000000 198 172 93 255
2.531250 1.040000 0.000000 0.000000 0.000000 -1.000000 0 255 0 255
2.421875 0.700000 0.020000 0.000000 0.000000 0.000000 144 159 174 255
2.421875 0.700000 0.020000 0.000000 0.000000 0.000000 144 159 174 255
2.453125 0.700000 0.020000 0.000000 0.000000 0.000000 144 159 174 255
2.421875 0.700000 0.020000 0.000000 0.000000 0.000000 144 159 174 255
2.453125 0.700000 0.020000 0.000000 -0.000000 -1.000000 144 159 174 255
2.421875 0.700000 0.020000 0.000000 -0.000000 -1.000000 144 159 174 255
2.453125 0.720000 0.020000 0.000000 -0.000000 -1.000000 144 159 174 255
2.437500 0.680000 0.020000 -0.000000 -0.000000 -1.000000 175 153 167 255
2.421875 0.700000 0.020000 -0.000000 -0.000000 -1.000000 144 159 174 255
2.453125 0.680000 0.020000 -0.000000 0.000000 -1.000000 144 159 174 255
1.156250 0.080000 0.020000 0.000000 0.000000 1.000000 186 62 12 255
1.890625 0.020000 0.020000 0.000000 0.000000 1.000000 186 62 12 255
1.203125 0.340000 0.020000 0.000000 0.000000 1.000000 186 62 12 255
2.375000 0.180000 0.020000 0.000000 0.000000 1.000000 186 62 12 255
2.468750 0.500000 0.020000 0.000000 0.000000 1.000000 186 62 12 255
1.812500 0.520000 0.020000 0.000000 0.000000 1.000000 186 62 12 255
1.296875 0.560000 0.020000 -0.000000 0.000000 1.000000 157 52 13 255
1.093750 0.440000 0.020000 -0.000000 0.000000 1.000000 157 52 13 255
0.734375 0.360000 0.020000 -0.000000 -0.000000 1.000000 186 62 12 255
1.562500 0.540000 0.020000 0.000000 0.000000 1.000000 186 62 12 255
0.546875 0.360000 0.020000 0.000000 0.000000 1.000000 186 62 12 255
0.781250 0.460000 0.020000 0.000000 0.000000 1.000000 186 62 12 255
0.578125 0.560000 0.020000 -0.000000 0.000000 1.000000 186 62 12 255
0.671875 0.560000 0.020000 0.000000 0.000000 1.000000 157 52 13 255
0.515625 0.620000 0.020000 -0.000000 -0.000000 1.000000 186 62 12 255
0.781250 0.720000 0.020000 -0.000000 0.000000 1.000000 186 62 12 255
2.468750 0.580000 0.020000 0.000000 -0.000000 1.000000 186 62 12 255
1.812500 0.600000 0.020000 -0.000000 0.000000 1.000000 186 62 12 255
1.562500 0.600000 0.020000 0.000000 0.000000 -1.000000 186 62 12 255
1.296875 0.560000 0.020000 0.000000 0.000000 -1.000000 157 52 13 255
1.296875 0.740000 0.020000 0.000000 0.000000 -1.000000 186 62 12 255
1.562500 0.540000 0.020000 0.000000 0.000000 -1.000000 186 62 12 255
1.812500 0.600000 0.020000 0.000000 0.000000 -1.000000 186 62 12 255
1.812500 0.520000 0.020000 0.000000 0.000000 -1.000000 186 62 12 255
2.453125 0.660000 0.020000 0.000000 -0.000000 -1.000000 191 196 207 255
2.343750 0.680000 0.020000 0.000000 -0.000000 -1.000000 191 196 207 255
2.421875 0.700000 0.020000 0.000000 -0.000000 -1.000000 191 196 207 255
2.343750 0.700000 0.020000 -0.000000 -0.000000 -1.000000 191 196 207 255
2.421875 0.700000 0.020000 -0.000000 -0.000000 -1.000000 191 196 207 255
2.343750 0.680000 0.020000 0.000000 0.000000 0.000000 191 196 207 255
2.421875 0.700000 0.020000 0.000000 0.000000 0.000000 191 196 207 255
2.421875 0.700000 0.020000 0.000000 0.000000 0.000000 191 196 207 255
2.437500 0.680000 0.020000 0.000000 0.000000 -1.000000 191 196 207 255
2.453125 0.680000 0.020000 0.000000 0.000000 -1.000000 191 196 207 255
2.093750 0.700000 0.020000 0.000000 0.000000 -1.000000 191 196 207 255
2.015625 0.680000 0.020000 0.000000 0.000000 -1.000000 191 196 207 255
1.984375 0.700000 0.020000 0.000000 0.000000 -1.000000 191 196 207 255
2.093750 0.700000 0.020000 0.000000 0.000000 0.000000 191 196 207 255
2.093750 0.700000 0.020000 0.000000 0.000000 0.000000 191 196 207 255
2.015625 0.680000 0.020000 0.000000 0.000000 0.000000 191 196 207 255
2.093750 0.700000 0.020000 0.000000 0.000000 -1.000000 191 196 207 255
2.171875 0.660000 0.020000 0.000000 0.000000 -1.000000 191 196 207 255
2.156250 0.680000 0.020000 0.000000 0.000000 -1.000000 191 196 207 255
2.171875 0.700000 0.020000 0.000000 0.000000 -1.000000 191 196 207 255
2.250000 0.680000 0.020000 0.000000 0.000000 -1.000000 191 196 207 255
2.156250 0.720000 0.020000 -0.000000 -0.000000 -1.000000 191 196 207 255
2.187500 0.720000 0.020000 -0.000000 -0.000000 -1.000000 191 196 207 255
2.343750 0.720000 0.020000 0.000000 0.000000 -1.000000 191 196 207 255
2.343750 0.720000 0.020000 0.000000 0.000000 0.000000 191 196 207 255
2.421875 0.700000 0.020000 0.000000 0.000000 0.000000 191 196 207 255
2.437500 0.680000 0.020000 0.000000 0.000000 0.000000 191 196 207 255
2.453125 0.660000 0.020000 0.000000 0.000000 0.000000 191 196 207 255
2.421875 0.700000 0.020000 -0.000000 -0.000000 -1.000000 191 196 207 255
2.453125 0.720000 0.020000 -0.000000 -0.000000 -1.000000 191 196 207 255
2.453125 0.720000 0.020000 0.000000 0.000000 0.000000 191 196 207 255
2.453125 0.720000 0.020000 0.000000 0.000000 0.000000 191 196 207 255
2.093750 0.720000 0.020000 0.000000 0.000000 -1.000000 191 196 207 255
2.062500 0.740000 0.020000 0.000000 0.000000 -1.000000 191 196 207 255
2.046875 0.700000 0.040000 -0.000000 -0.000000 -1.000000 144 159 174 255
2.046875 0.740000 0.040000 -0.000000 -0.000000 -1.000000 144 159 174 255
2.125000 0.700000 0.040000 -0.000000 -0.000000 -1.000000 144 159 174 255
2.093750 0.700000 0.040000 0.000000 0.000000 0.000000 144 159 174 255
2.046875 0.700000 0.040000 0.000000 0.000000 0.000000 144 159 174 255
2.125000 0.700000 0.040000 0.000000 0.000000 0.000000 144 159 174 255
2.156250 0.680000 0.040000 0.000000 0.000000 -1.000000 144 159 174 255
2.093750 0.700000 0.040000 0.000000 0.000000 -1.000000 144 159 174 255
2.171875 0.700000 0.040000 0.000000 0.000000 -1.000000 144 159 174 255
2.171875 0.740000 0.040000 -0.000000 0.000000 -1.000000 144 159 174 255
2.421875 0.700000 0.040000 0.000000 0.000000 0.000000 144 159 174 255
2.421875 0.700000 0.040000 0.000000 0.000000 0.000000 144 159 174 255
2.453125 0.700000 0.040000 0.000000 0.000000 0.000000 144 159 174 255
2.453125 0.700000 0.040000 0.000000 0.000000 -1.000000 144 159 174 255
2.421875 0.700000 0.040000 0.000000 0.000000 -1.000000 144 159 174 255
2.421875 0.720000 0.040000 0.000000 0.000000 -1.000000 144 159 174 255
2.453125 0.720000 0.040000 -0.000000 -0.000000 -1.000000 144 159 174 255
2.437500 0.680000 0.040000 -0.000000 -0.000000 -1.000000 175 153 167 255
2.421875 0.700000 0.040000 -0.000000 -0.000000 -1.000000 144 159 174 255
2.453125 0.680000 0.040000 -0.000000 0.000000 -1.000000 144 159 174 255
1.784562 1.410762 0.040000 0.000000 0.000000 -1.000000 186 62 12 255
2.083908 1.399508 0.040000 0.000000 0.000000 -1.000000 186 62 12 255
1.919710 1.367055 0.040000 0.000000 0.000000 -1.000000 186 62 12 255
2.165972 1.507080 0.040000 -0.000000 0.000000 -1.000000 186 62 12 255
1.675049 1.510921 0.040000 0.000000 0.000000 -1.000000 186 62 12 255
2.208674 1.662066 0.040000 -0.000000 0.000000 -1.000000 186 62 12 255
1.582604 1.709614 0.040000 0.000000 0.000000 -1.000000 186 62 12 255
2.167572 1.790972 0.040000 0.000000 -0.000000 -1.000000 186 62 12 255
1.524363 1.922680 0.040000 0.000000 -0.000000 -1.000000 186 62 12 255
2.104175 2.065824 0.040000 0.000000 -0.000000 -1.000000 186 62 12 255
1.931266 2.440837 0.040000 0.000000 -0.000000 -1.000000 186 62 12 255
1.531119 2.144786 0.040000 0.000000 -0.000000 -1.000000 186 62 12 255
1.573821 2.299772 0.040000 0.000000 -0.000000 -1.000000 186 62 12 255
2.001820 2.530105 0.040000 0.000000 -0.000000 -1.000000 186 62 12 255
1.666053 2.649156 0.040000 0.000000 -0.000000 -1.000000 186 62 12 255
2.063332 2.702131 0.040000 0.000000 -0.000000 -1.000000 186 62 12 255
1.775424 2.914382 0.040000 -0.000000 0.000000 -1.000000 186 62 12 255
2.131671 2.913569 0.040000 -0.000000 0.000000 -1.000000 186 62 12 255
1.840349 3.106114 0.040000 -0.000000 0.000000 -1.000000 186 62 12 255
2.148264 3.052780 0.040000 -0.000000 0.000000 -1.000000 186 62 12 255
1.905274 3.297846 0.040000 -0.000000 0.000000 -1.000000 191 196 207 255
2.228585 3.241846 0.040000 -0.000000 0.000000 -1.000000 191 196 207 255
2.016387 3.481578 0.040000 -0.000000 0.000000 -1.000000 191 196 207 255
2.266132 3.458618 0.040000 -0.000000 0.000000 -1.000000 191 196 207 255
0.968750 2.320000 0.060000 0.000000 0.000000 -1.000000 138 111 113 255
1.390625 1.760000 0.060000 0.000000 0.000000 -1.000000 175 153 167 255
1.218750 1.700000 0.060000 0.000000 0.000000 -1.000000 138 111 113 255
1.171875 2.320000 0.060000 0.000000 0.000000 -1.000000 175 153 167 255
2.390625 1.440000 0.060000 0.000000 0.000000 -1.000000 175 153 167 255
1.859375 1.320000 0.060000 0.000000 0.000000 -1.000000 175 153 167 255
1.609375 1.420000 0.060000 0.000000 0.000000 -1.000000 138 111 113 255
2.203125 1.320000 0.060000 0.000000 0.000000 -1.000000 175 153 167 255
1.718750 1.500000 0.060000 -0.000000 0.000000 -1.000000 175 153 167 255
2.718750 1.740000 0.060000 -0.000000 0.000000 -1.000000 175 153 167 255
2.921875 2.320000 0.060000 0.000000 -0.000000 -1.000000 175 153 167 255
1.187500 2.760000 0.060000 -0.000000 0.000000 -1.000000 175 153 167 255
1.015625 2.800000 0.060000 0.000000 -0.000000 -1.000000 138 111 113 255
2.968750 2.660000 0.060000 0.000000 0.000000 -1.000000 175 153 167 255
1.218750 3.060000 0.060000 -0.000000 0.000000 -1.000000 175 153 167 255
1.046875 3.100000 0.060000 0.000000 -0.000000 -1.000000 138 111 113 255
1.234375 3.100000 0.060000 0.000000 0.000000 -1.000000 175 153 167 255
2.796875 3.120000 0.060000 0.000000 0.000000 -1.000000 175 153 167 255
1.093750 3.200000 0.060000 0.000000 -0.000000 -1.000000 138 111 113 255
1.250000 3.220000 0.060000 0.000000 -0.000000 -1.000000 138 111 113 255
2.734375 3.220000 0.060000 -0.000000 0.000000 -1.000000 138 111 113 255
1.133516 3.757171 0.080000 -0.000000 0.000000 -1.000000 157 52 13 255
1.740353 4.249208 0.080000 -0.000000 0.000000 -1.000000 186 62 12 255
2.054291 3.859744 0.080000 -0.000000 0.000000 -1.000000 186 62 12 255
1.267212 4.535029 0.080000 0.000000 0.000000 -1.000000 157 108 103 255
0.793880 4.151240 0.080000 0.000000 0.000000 -1.000000 157 108 103 255
0.717384 4.295201 0.080000 0.000000 0.000000 -1.000000 157 108 103 255
1.178120 4.694527 0.080000 0.000000 -0.000000 -1.000000 157 108 103 255
1.375064 4.699724 0.080000 0.000000 0.000000 -1.000000 157 108 103 255
0.679595 4.341807 0.080000 0.000000 0.000000 -1.000000 157 108 103 255
1.336357 4.797081 0.080000 -0.000000 0.000000 -1.000000 157 108 103 255
1.152927 4.725596 0.080000 0.000000 -0.000000 -1.000000 157 108 103 255
1.298568 4.843686 0.080000 0.000000 -0.000000 -1.000000 157 108 103 255
2.234375 3.160000 0.080000 0.000000 0.000000 -1.000000 186 62 12 255
1.156250 3.140000 0.080000 0.000000 0.000000 -1.000000 186 62 12 255
0.831668 4.104635 0.080000 0.000000 -0.000000 -1.000000 186 62 12 255
1.305000 4.488425 0.080000 -0.000000 0.000000 -1.000000 186 62 12 255
2.156250 3.640000 0.100000 0.000000 0.000000 -1.000000 157 52 13 255
2.750000 3.140000 0.100000 0.000000 0.000000 -1.000000 186 62 12 255
2.156250 3.140000 0.100000 0.000000 0.000000 -1.000000 157 52 13 255
2.875000 3.600000 0.100000 0.000000 0.000000 -1.000000 186 62 12 255
2.328125 4.520000 0.100000 -0.000000 0.000000 -1.000000 157 52 13 255
2.828125 4.560000 0.100000 -0.000000 0.000000 -1.000000 157 108 103 255
2.843750 4.500000 0.100000 -0.000000 0.000000 -1.000000 186 62 12 255
2.328125 4.580000 0.100000 -0.000000 -0.000000 -1.000000 157 108 103 255
2.359375 4.740000 0.100000 0.000000 -0.000000 -1.000000 157 108 103 255
2.875000 4.740000 0.100000 -0.000000 -0.000000 -1.000000 157 108 103 255
3.015625 4.620000 0.100000 0.000000 -0.000000 -1.000000 157 108 103 255
2.875000 4.780000 0.100000 -0.000000 0.000000 -1.000000 157 108 103 255
2.359375 4.800000 0.100000 -0.000000 -0.000000 -1.000000 157 108 103 255
3.062500 4.740000 0.100000 0.000000 0.000000 -1.000000 157 108 103 255
3.062500 4.780000 0.100000 -0.000000 -0.000000 -1.000000 157 108 103 255
2.859375 4.000000 0.100000 0.000000 -0.000000 -1.000000 186 62 12 255
2.328125 4.060000 0.100000 0.000000 -0.000000 -1.000000 157 52 13 255
1.593750 1.640000 0.120000 0.000000 0.000000 -1.000000 186 62 12 255
2.078125 1.580000 0.120000 0.000000 0.000000 -1.000000 186 62 12 255
1.796875 1.540000 0.120000 0.000000 0.000000 -1.000000 186 62 12 255
2.234375 1.740000 0.120000 -0.000000 0.000000 -1.000000 186 62 12 255
1.625000 1.840000 0.120000 0.000000 -0.000000 -1.000000 186 62 12 255
2.265625 1.880000 0.120000 0.000000 -0.000000 -1.000000 186 62 12 255
2.220004 2.094554 0.120000 -0.000000 0.000000 -1.000000 186 62 12 255
1.693173 2.108111 0.120000 -0.000000 0.000000 -1.000000 186 62 12 255
1.783758 2.270908 0.120000 0.000000 -0.000000 -1.000000 186 62 12 255
2.000000 2.360000 0.120000 0.000000 -0.000000 -1.000000 186 62 12 255
2.346477 2.130004 0.120000 -0.000000 -0.000000 -1.000000 186 62 12 255
3.000000 2.400000 0.120000 0.000000 -0.000000 -1.000000 186 62 12 255
2.906250 2.180000 0.120000 -0.000000 0.000000 -1.000000 186 62 12 255
2.984375 2.180000 0.120000 0.000000 0.000000 -1.000000 186 62 12 255
3.078125 2.400000 0.120000 0.000000 0.000000 -1.000000 186 62 12 255
3.140625 2.160000 0.120000 0.000000 0.000000 -1.000000 191 196 207 255
3.234375 2.400000 0.120000 0.000000 0.000000 -1.000000 191 196 207 255
3.359375 2.200000 0.120000 0.000000 0.000000 -1.000000 191 196 207 255
3.421875 2.360000 0.120000 0.000000 0.000000 -1.000000 191 196 207 255
3.342957 1.710118 0.000000 -0.000000 -0.000000 1.000000 169 128 41 255
3.116888 2.491243 0.000000 -0.000000 -0.000000 1.000000 169 127 43 255
3.228894 1.691592 0.000000 -0.000000 -0.000000 1.000000 170 128 45 255
1.190177 3.462905 0.080000 0.000000 -0.000000 -1.000000 186 62 12 255
1.196237 3.585394 0.080000 0.000000 -0.000000 -1.000000 170 57 13 255
2.986066 0.895704 0.000000 0.000000 0.000000 1.000000 168 126 37 255
3.064470 0.714977 0.000000 0.000000 0.000000 1.000000 198 172 92 255
3.089657 0.908830 0.000000 0.000000 0.000000 1.000000 183 156 66 255
3.842026 0.815756 0.000000 -0.000000 0.000000 1.000000 186 160 81 255
3.617252 1.082650 0.000000 -0.000000 0.000000 1.000000 198 172 93 255
3.061871 0.443832 0.000000 0.000000 0.000000 1.000000 170 129 46 255
3.237425 0.205773 0.000000 0.000000 0.000000 1.000000 169 128 42 255
3.146432 0.469518 0.000000 0.000000 0.000000 1.000000 198 172 93 255
3.393173 0.124813 0.000000 0.000000 0.000000 1.000000 168 126 36 255
3.413568 0.192900 0.000000 0.000000 0.000000 1.000000 198 172 93 255
3.615819 0.155999 0.000000 0.000000 0.000000 1.000000 183 156 66 255
3.288498 0.270544 0.000000 0.000000 -0.000000 1.000000 198 172 93 255
2.994405 0.697030 0.000000 0.000000 0.000000 1.000000 168 127 39 255
3.291123 1.172533 0.000000 0.000000 -0.000000 1.000000 170 128 46 255
3.074347 1.079362 0.000000 0.000000 -0.000000 1.000000 168 126 37 255
3.193339 1.051822 0.000000 0.000000 -0.000000 1.000000 193 167 84 255
3.660116 1.161410 0.000000 -0.000000 -0.000000 1.000000 168 126 36 255
3.426083 1.191436 0.000000 -0.000000 -0.000000 1.000000 168 126 36 255
3.370760 1.109980 0.000000 0.000000 -0.000000 1.000000 198 172 93 255
3.795459 1.009074 0.000000 0.000000 0.000000 1.000000 168 126 36 255
3.846722 0.553765 0.000000 0.000000 0.000000 1.000000 183 156 66 255
3.743330 0.276634 0.000000 0.000000 0.000000 1.000000 183 156 66 255
3.242078 2.110986 -0.100000 -0.000000 0.000000 1.000000 191 196 207 255
3.134672 2.259183 -0.100000 -0.000000 0.000000 1.000000 168 171 174 255
3.114858 2.167801 -0.100000 -0.000000 0.000000 1.000000 168 171 174 255
3.267039 2.185884 -0.100000 0.000000 0.000000 1.000000 191 196 207 255
3.231449 2.506209 0.000000 -0.000000 0.000000 1.000000 171 130 49 255
2.849975 4.061570 0.000000 0.000000 0.000000 1.000000 168 126 37 255
3.032997 4.087205 0.000000 0.000000 0.000000 1.000000 175 137 72 255
3 0 1 2
3 0 3 1
3 0 4 5
3 0 6 3
3 0 5 6
3 7 8 9
3 7 10 8
3 11 10 7
3 11 12 10
3 12 13 10
3 13 12 14
3 15 14 12
3 15 12 11
3 15 16 17
3 15 17 14
3 18 19 20
3 18 20 21
3 21 17 16
3 21 20 17
3 20 14 17
3 20 19 22
3 20 22 23
3 20 23 14
3 23 24 25
3 23 25 14
3 23 22 24
3 26 27 28
3 26 28 29
3 4 0 2
3 4 2 29
3 4 30 5
3 27 31 28
3 32 4 29
3 32 30 4
3 28 32 29
3 30 33 5
3 30 34 35
3 31 27 36
3 37 38 39
3 40 33 30
3 41 38 37
3 42 35 43
3 44 31 36
3 36 34 44
3 34 30 45
3 34 45 44
3 34 43 35
3 43 34 46
3 47 36 48
3 47 34 36
3 47 49 50
3 47 50 46
3 49 51 50
3 49 48 51
3 49 47 48
3 46 34 47
3 46 50 52
3 52 53 46
3 54 55 56
3 56 55 57
3 58 59 60
3 61 62 58
3 61 58 63
3 64 65 66
3 67 68 69
3 67 69 65
3 66 70 71
3 66 72 64
3 66 73 70
3 74 64 72
3 72 71 75
3 72 66 71
3 72 76 74
3 69 73 65
3 73 66 65
3 76 72 75
3 76 75 77
3 76 78 74
3 76 79 78
3 80 69 68
3 80 81 69
3 82 83 84
3 82 85 83
3 86 87 85
3 86 85 82
3 79 76 77
3 88 89 90
3 89 91 92
3 93 94 95
3 96 97 88
3 98 99 100
3 101 102 103
3 104 105 99
3 104 106 105
3 107 105 106
3 107 108 105
3 107 109 110
3 107 110 108
3 92 91 111
3 94 112 113
3 95 114 115
3 116 111 117
3 113 118 119
3 109 120 121
3 109 121 110
3 121 98 100
3 121 120 98
3 122 123 124
3 125 126 127
3 124 128 129
3 124 130 128
3 124 131 130
3 132 133 134
3 135 136 137
3 135 137 138
3 123 131 124
3 139 140 135
3 139 135 141
3 142 143 144
3 142 145 143
3 146 145 142
3 146 147 145
3 147 146 148
3 147 148 149
3 149 150 151
3 150 149 148
3 151 150 152
3 152 150 153
3 152 153 154
3 152 154 155
3 155 154 156
3 155 156 157
3 156 158 159
3 156 159 157
3 158 160 161
3 158 161 159
3 160 162 163
3 160 163 161
3 162 164 165
3 162 165 163
3 166 167 168
3 166 169 167
3 170 171 172
3 170 173 171
3 174 175 172
3 174 167 176
3 174 176 175
3 175 170 172
3 167 172 168
3 167 174 172
3 167 169 176
3 169 177 176
3 177 166 178
3 177 169 166
3 177 179 176
3 177 180 179
3 180 178 181
3 180 177 178
3 180 182 183
3 180 183 179
3 182 181 184
3 182 184 185
3 182 185 186
3 182 186 183
3 182 180 181
3 187 188 189
3 190 191 192
3 190 192 193
3 194 190 193
3 193 192 195
3 193 196 194
3 193 195 197
3 193 197 198
3 193 198 196
3 189 199 200
3 201 191 190
3 201 190 202
3 202 187 201
3 202 188 187
3 203 204 205
3 203 206 204
3 207 208 209
3 207 210 208
3 208 210 211
3 208 211 212
3 213 208 212
3 211 214 212
3 211 215 214
3 212 216 213
3 212 214 217
3 212 217 216
3 218 203 219
3 218 206 203
3 209 219 207
3 209 218 219
3 220 221 222
3 220 223 221
3 223 220 224
3 223 224 225
3 224 226 225
3 224 227 226
3 226 228 229
3 226 229 230
3 230 229 231
3 230 231 232
3 231 233 232
3 231 234 233
3 234 235 233
3 234 236 235
3 236 237 235
3 236 238 237
3 239 240 241
3 189 242 243
3 243 187 189
3 189 200 242
3 244 245 246
3 247 248 245
3 249 250 251
3 250 252 253
3 252 254 253
3 255 250 253
3 244 256 245
3 256 249 245
3 257 258 259
3 258 244 246
3 259 258 246
3 260 261 248
3 261 257 262
3 248 263 260
3 262 248 261
3 250 255 251
3 259 262 257
3 249 251 245
3 247 263 248
3 248 262 245
3 262 259 246
3 245 262 246
3 245 251 247
3 251 255 264
3 255 253 265
3 253 254 265
3 265 264 255
3 264 247 251
3 266 267 268
3 266 269 267
3 239 270 240
3 261 239 241
3 261 241 257
3 240 270 271
3 271 270 272
3 226 227 228
