ply
format ascii 1.0
comment Created by Blender 2.83.4 - www.blender.org, source file: ''
element vertex 255
property float x
property float y
property float z
property float nx
property float ny
property float nz
property float s
property float t
property uchar red
property uchar green
property uchar blue
property uchar alpha
element face 225
property list uchar uint vertex_indices
end_header
0.562679 3.493804 0.002156 0.000000 0.000000 -1.000000 0.000000 0.000000 183 156 66 255
0.510059 3.376481 0.002156 0.000000 0.000000 -1.000000 0.000000 0.000000 168 171 174 255
0.510059 3.508469 0.002156 0.000000 0.000000 -1.000000 0.000000 0.000000 198 172 93 255
0.562679 3.391146 0.002156 0.000000 0.000000 -1.000000 0.000000 0.000000 183 156 66 255
0.562679 3.581796 0.002156 -0.000000 -0.000000 -1.000000 0.000000 0.000000 198 172 93 255
0.597759 3.493804 0.002156 -0.000000 -0.000000 -1.000000 0.000000 0.000000 198 172 93 255
0.580219 3.391146 0.002156 0.000000 0.000000 -1.000000 0.000000 0.000000 198 172 93 255
0.685458 4.124414 0.002156 -0.000000 0.000000 1.000000 0.000000 0.000000 191 196 207 255
0.527599 4.227072 0.002156 -0.000000 0.000000 1.000000 0.000000 0.000000 191 196 207 255
0.527599 3.992426 0.002156 -0.000000 0.000000 1.000000 0.000000 0.000000 191 196 207 255
0.650378 4.476383 0.002156 -0.000000 0.000000 1.000000 0.000000 0.000000 191 196 207 255
0.720537 4.227072 0.002156 -0.000000 -0.000000 1.000000 0.000000 0.000000 191 196 207 255
0.755617 4.315064 0.002156 0.000000 0.000000 1.000000 0.000000 0.000000 191 196 207 255
0.773157 4.403057 0.002156 0.000000 0.000000 1.000000 0.000000 0.000000 191 196 207 255
0.913475 4.315064 0.002156 0.000000 -0.000000 1.000000 0.000000 0.000000 168 171 174 255
0.825776 4.197742 0.002156 -0.000000 0.000000 1.000000 0.000000 0.000000 191 196 207 255
0.808236 3.801776 0.002156 0.000000 -0.000000 1.000000 0.000000 0.000000 191 196 207 255
0.825776 3.889769 0.002156 0.000000 -0.000000 1.000000 0.000000 0.000000 191 196 207 255
0.913475 3.317819 0.002156 0.000000 0.000000 1.000000 0.000000 0.000000 191 196 207 255
0.966095 3.215162 0.002156 0.000000 0.000000 1.000000 0.000000 0.000000 191 196 207 255
1.001174 3.655123 0.002156 0.000000 0.000000 1.000000 0.000000 0.000000 191 196 207 255
0.948555 3.640457 0.002156 -0.000000 0.000000 1.000000 0.000000 0.000000 191 196 207 255
1.141493 3.200496 0.002156 0.000000 -0.000000 1.000000 0.000000 0.000000 191 196 207 255
1.159033 3.640457 0.002156 0.000000 0.000000 1.000000 0.000000 0.000000 191 196 207 255
1.264271 3.317819 0.002156 0.000000 0.000000 1.000000 0.000000 0.000000 168 171 174 255
1.281811 3.757780 0.002156 0.000000 0.000000 1.000000 0.000000 0.000000 168 171 174 255
0.527599 3.992426 0.002156 -0.000000 0.000000 -1.000000 0.000000 0.000000 198 172 93 255
0.580219 4.036422 0.002156 -0.000000 0.000000 -1.000000 0.000000 0.000000 198 172 93 255
0.597759 3.801776 0.002156 -0.000000 0.000000 -1.000000 0.000000 0.000000 198 172 93 255
0.510059 3.669788 0.002156 0.000000 0.000000 -1.000000 0.000000 0.000000 198 172 93 255
0.597759 3.581796 0.002156 0.000000 0.000000 -1.000000 0.000000 0.000000 198 172 93 255
0.615298 3.831107 0.002156 0.000000 0.000000 -1.000000 0.000000 0.000000 198 172 93 255
0.580219 3.655123 0.002156 0.000000 0.000000 -1.000000 0.000000 0.000000 198 172 93 255
0.615298 3.493804 0.002156 0.000000 0.000000 -1.000000 0.000000 0.000000 198 172 93 255
0.685458 3.537800 0.002156 0.000000 0.000000 -1.000000 0.000000 0.000000 198 172 93 255
0.632838 3.493804 0.002156 0.000000 0.000000 -1.000000 0.000000 0.000000 198 172 93 255
0.685458 4.124414 0.002156 0.000000 -0.000000 -1.000000 0.000000 0.000000 198 172 93 255
0.632838 3.493804 0.002156 0.000000 0.000000 0.000000 0.000000 0.000000 198 172 93 255
0.632838 3.493804 0.002156 0.000000 0.000000 0.000000 0.000000 0.000000 198 172 93 255
0.597759 3.581796 0.002156 0.000000 0.000000 0.000000 0.000000 0.000000 198 172 93 255
0.632838 3.493804 0.002156 0.000000 0.000000 -1.000000 0.000000 0.000000 198 172 93 255
0.632838 3.391146 0.002156 0.000000 0.000000 0.000000 0.000000 0.000000 198 172 93 255
0.632838 3.391146 0.002156 -0.000000 -0.000000 -1.000000 0.000000 0.000000 198 172 93 255
0.685458 3.405811 0.002156 -0.000000 -0.000000 -1.000000 0.000000 0.000000 198 172 93 255
0.650378 3.757780 0.002156 0.000000 -0.000000 -1.000000 0.000000 0.000000 198 172 93 255
0.632838 3.640457 0.002156 0.000000 -0.000000 -1.000000 0.000000 0.000000 198 172 93 255
0.790697 3.259158 0.002156 -0.000000 -0.000000 -1.000000 0.000000 0.000000 198 172 93 255
0.738077 4.051088 0.002156 0.000000 -0.000000 -1.000000 0.000000 0.000000 198 172 93 255
0.720537 4.227072 0.002156 0.000000 -0.000000 -1.000000 0.000000 0.000000 198 172 93 255
0.755617 4.080419 0.002156 -0.000000 0.000000 -1.000000 0.000000 0.000000 198 172 93 255
0.808236 3.801776 0.002156 -0.000000 0.000000 -1.000000 0.000000 0.000000 198 172 93 255
0.825776 4.197742 0.002156 -0.000000 0.000000 -1.000000 0.000000 0.000000 183 156 66 255
0.948555 3.640457 0.002156 -0.000000 0.000000 -1.000000 0.000000 0.000000 198 172 93 255
0.913475 3.317819 0.002156 0.000000 0.000000 -1.000000 0.000000 0.000000 0 255 0 255
0.615298 3.420477 0.020927 0.000000 0.000000 0.000000 0.000000 0.000000 144 159 174 255
0.615298 3.420477 0.020927 0.000000 0.000000 0.000000 0.000000 0.000000 144 159 174 255
0.615298 3.391146 0.020927 0.000000 0.000000 0.000000 0.000000 0.000000 144 159 174 255
0.615298 3.420477 0.020927 0.000000 0.000000 0.000000 0.000000 0.000000 144 159 174 255
0.615298 3.391146 0.020927 -0.000000 -0.000000 -1.000000 0.000000 0.000000 144 159 174 255
0.615298 3.420477 0.020927 -0.000000 -0.000000 -1.000000 0.000000 0.000000 144 159 174 255
0.632838 3.391146 0.020927 -0.000000 -0.000000 -1.000000 0.000000 0.000000 144 159 174 255
0.597759 3.405811 0.020927 -0.000000 0.000000 -1.000000 0.000000 0.000000 175 153 167 255
0.615298 3.420477 0.020927 -0.000000 0.000000 -1.000000 0.000000 0.000000 144 159 174 255
0.597759 3.391146 0.020927 0.000000 0.000000 -1.000000 0.000000 0.000000 144 159 174 255
0.071564 4.380222 0.020927 0.000000 -0.000000 1.000000 0.000000 0.000000 186 62 12 255
0.018945 3.919099 0.020927 0.000000 -0.000000 1.000000 0.000000 0.000000 186 62 12 255
0.299582 4.351116 0.020927 0.000000 -0.000000 1.000000 0.000000 0.000000 186 62 12 255
0.159263 3.464473 0.020927 0.000000 0.000000 1.000000 0.000000 0.000000 186 62 12 255
0.439900 3.376481 0.020927 0.000000 0.000000 1.000000 0.000000 0.000000 186 62 12 255
0.457440 3.992426 0.020927 0.000000 0.000000 1.000000 0.000000 0.000000 186 62 12 255
0.492520 4.476383 0.020927 -0.000000 0.000000 1.000000 0.000000 0.000000 157 52 13 255
0.387281 4.419032 0.020927 -0.000000 0.000000 1.000000 0.000000 0.000000 157 52 13 255
0.317121 4.642180 0.020927 -0.000000 0.000000 1.000000 0.000000 0.000000 186 62 12 255
0.474980 4.227072 0.020927 0.000000 0.000000 1.000000 0.000000 0.000000 186 62 12 255
0.404821 4.613074 0.020927 0.000000 0.000000 1.000000 0.000000 0.000000 186 62 12 255
0.492520 4.739201 0.020927 0.000000 -0.000000 1.000000 0.000000 0.000000 186 62 12 255
0.492520 4.680988 0.020927 0.000000 -0.000000 1.000000 0.000000 0.000000 157 52 13 255
0.510059 3.376481 0.020927 -0.000000 0.000000 1.000000 0.000000 0.000000 186 62 12 255
0.527599 3.992426 0.020927 -0.000000 0.000000 1.000000 0.000000 0.000000 186 62 12 255
0.527599 4.227072 0.020927 -0.000000 -0.000000 -1.000000 0.000000 0.000000 186 62 12 255
0.492520 4.476383 0.020927 -0.000000 -0.000000 -1.000000 0.000000 0.000000 157 52 13 255
0.650378 4.476383 0.020927 -0.000000 -0.000000 -1.000000 0.000000 0.000000 186 62 12 255
0.474980 4.227072 0.020927 0.000000 -0.000000 -1.000000 0.000000 0.000000 186 62 12 255
0.527599 3.992426 0.020927 0.000000 -0.000000 -1.000000 0.000000 0.000000 186 62 12 255
0.457440 3.992426 0.020927 0.000000 -0.000000 -1.000000 0.000000 0.000000 186 62 12 255
0.632838 4.613074 0.020927 -0.000000 0.000000 1.000000 0.000000 0.000000 186 62 12 255
0.580219 3.391146 0.020927 -0.000000 0.000000 -1.000000 0.000000 0.000000 191 196 207 255
0.597759 3.493804 0.020927 -0.000000 0.000000 -1.000000 0.000000 0.000000 191 196 207 255
0.615298 3.420477 0.020927 -0.000000 0.000000 -1.000000 0.000000 0.000000 191 196 207 255
0.615298 3.493804 0.020927 0.000000 0.000000 -1.000000 0.000000 0.000000 191 196 207 255
0.615298 3.420477 0.020927 0.000000 0.000000 -1.000000 0.000000 0.000000 191 196 207 255
0.597759 3.493804 0.020927 0.000000 0.000000 0.000000 0.000000 0.000000 191 196 207 255
0.615298 3.420477 0.020927 0.000000 0.000000 0.000000 0.000000 0.000000 191 196 207 255
0.615298 3.420477 0.020927 0.000000 0.000000 0.000000 0.000000 0.000000 191 196 207 255
0.597759 3.405811 0.020927 0.000000 0.000000 -1.000000 0.000000 0.000000 191 196 207 255
0.597759 3.391146 0.020927 0.000000 0.000000 -1.000000 0.000000 0.000000 191 196 207 255
0.615298 3.728450 0.020927 0.000000 -0.000000 -1.000000 0.000000 0.000000 191 196 207 255
0.597759 3.801776 0.020927 0.000000 -0.000000 -1.000000 0.000000 0.000000 191 196 207 255
0.615298 3.831107 0.020927 0.000000 -0.000000 -1.000000 0.000000 0.000000 191 196 207 255
0.615298 3.728450 0.020927 0.000000 0.000000 0.000000 0.000000 0.000000 191 196 207 255
0.615298 3.728450 0.020927 0.000000 0.000000 0.000000 0.000000 0.000000 191 196 207 255
0.597759 3.801776 0.020927 0.000000 0.000000 0.000000 0.000000 0.000000 191 196 207 255
0.615298 3.728450 0.020927 0.000000 -0.000000 -1.000000 0.000000 0.000000 191 196 207 255
0.580219 3.655123 0.020927 0.000000 -0.000000 -1.000000 0.000000 0.000000 191 196 207 255
0.597759 3.669788 0.020927 0.000000 0.000000 -1.000000 0.000000 0.000000 191 196 207 255
0.615298 3.655123 0.020927 0.000000 -0.000000 -1.000000 0.000000 0.000000 191 196 207 255
0.597759 3.581796 0.020927 0.000000 0.000000 -1.000000 0.000000 0.000000 191 196 207 255
0.632838 3.669788 0.020927 -0.000000 0.000000 -1.000000 0.000000 0.000000 191 196 207 255
0.632838 3.640457 0.020927 -0.000000 0.000000 -1.000000 0.000000 0.000000 191 196 207 255
0.632838 3.493804 0.020927 -0.000000 -0.000000 -1.000000 0.000000 0.000000 191 196 207 255
0.632838 3.493804 0.020927 0.000000 0.000000 0.000000 0.000000 0.000000 191 196 207 255
0.615298 3.420477 0.020927 0.000000 0.000000 0.000000 0.000000 0.000000 191 196 207 255
0.615298 3.420477 0.020927 0.000000 0.000000 -1.000000 0.000000 0.000000 191 196 207 255
0.597759 3.405811 0.020927 0.000000 0.000000 -1.000000 0.000000 0.000000 191 196 207 255
0.580219 3.391146 0.020927 0.000000 0.000000 -1.000000 0.000000 0.000000 191 196 207 255
0.615298 3.420477 0.020927 -0.000000 0.000000 -1.000000 0.000000 0.000000 191 196 207 255
0.632838 3.391146 0.020927 -0.000000 0.000000 -1.000000 0.000000 0.000000 191 196 207 255
0.632838 3.391146 0.020927 0.000000 0.000000 0.000000 0.000000 0.000000 191 196 207 255
0.632838 3.391146 0.020927 0.000000 0.000000 0.000000 0.000000 0.000000 191 196 207 255
0.632838 3.728450 0.020927 0.000000 -0.000000 -1.000000 0.000000 0.000000 191 196 207 255
0.650378 3.757780 0.020927 0.000000 -0.000000 -1.000000 0.000000 0.000000 191 196 207 255
0.615298 3.772446 0.039699 0.000000 0.000000 -1.000000 0.000000 0.000000 144 159 174 255
0.650378 3.772446 0.039699 0.000000 0.000000 -1.000000 0.000000 0.000000 144 159 174 255
0.615298 3.699119 0.039699 0.000000 0.000000 -1.000000 0.000000 0.000000 144 159 174 255
0.615298 3.728450 0.039699 0.000000 0.000000 0.000000 0.000000 0.000000 144 159 174 255
0.615298 3.772446 0.039699 0.000000 0.000000 0.000000 0.000000 0.000000 144 159 174 255
0.615298 3.699119 0.039699 0.000000 0.000000 0.000000 0.000000 0.000000 144 159 174 255
0.597759 3.669788 0.039699 0.000000 -0.000000 -1.000000 0.000000 0.000000 144 159 174 255
0.615298 3.728450 0.039699 0.000000 -0.000000 -1.000000 0.000000 0.000000 144 159 174 255
0.615298 3.655123 0.039699 0.000000 0.000000 -1.000000 0.000000 0.000000 144 159 174 255
0.650378 3.655123 0.039699 0.000000 0.000000 -1.000000 0.000000 0.000000 144 159 174 255
0.615298 3.420477 0.039699 0.000000 0.000000 0.000000 0.000000 0.000000 144 159 174 255
0.615298 3.420477 0.039699 0.000000 0.000000 0.000000 0.000000 0.000000 144 159 174 255
0.615298 3.391146 0.039699 0.000000 0.000000 0.000000 0.000000 0.000000 144 159 174 255
0.615298 3.391146 0.039699 -0.000000 -0.000000 -1.000000 0.000000 0.000000 144 159 174 255
0.615298 3.420477 0.039699 -0.000000 -0.000000 -1.000000 0.000000 0.000000 144 159 174 255
0.632838 3.420477 0.039699 -0.000000 -0.000000 -1.000000 0.000000 0.000000 144 159 174 255
0.632838 3.391146 0.039699 -0.000000 0.000000 -1.000000 0.000000 0.000000 144 159 174 255
0.597759 3.405811 0.039699 -0.000000 0.000000 -1.000000 0.000000 0.000000 175 153 167 255
0.615298 3.420477 0.039699 -0.000000 0.000000 -1.000000 0.000000 0.000000 144 159 174 255
0.597759 3.391146 0.039699 0.000000 0.000000 -1.000000 0.000000 0.000000 144 159 174 255
1.237556 3.764976 0.039699 0.000000 0.000000 -1.000000 0.000000 0.000000 186 62 12 255
1.393975 3.539086 0.039699 0.000000 0.000000 -1.000000 0.000000 0.000000 186 62 12 255
1.281737 3.640326 0.039699 0.000000 0.000000 -1.000000 0.000000 0.000000 186 62 12 255
1.512599 3.542091 0.039699 0.000000 0.000000 -1.000000 0.000000 0.000000 186 62 12 255
1.246071 3.903971 0.039699 0.000000 0.000000 -1.000000 0.000000 0.000000 186 62 12 255
1.642097 3.601751 0.039699 0.000000 0.000000 -1.000000 0.000000 0.000000 186 62 12 255
1.401381 4.188942 0.039699 0.000000 -0.000000 -1.000000 0.000000 0.000000 186 62 12 255
1.707795 3.707500 0.039699 -0.000000 -0.000000 -1.000000 0.000000 0.000000 186 62 12 255
1.861167 3.915218 0.039699 -0.000000 -0.000000 -1.000000 0.000000 0.000000 186 62 12 255
2.023054 4.261931 0.039699 0.000000 -0.000000 -1.000000 0.000000 0.000000 186 62 12 255
1.601024 4.381344 0.039699 0.000000 -0.000000 -1.000000 0.000000 0.000000 186 62 12 255
1.730522 4.441005 0.039699 0.000000 -0.000000 -1.000000 0.000000 0.000000 186 62 12 255
2.122839 4.262628 0.039699 -0.000000 -0.000000 -1.000000 0.000000 0.000000 186 62 12 255
2.020237 4.578451 0.039699 0.000000 -0.000000 -1.000000 0.000000 0.000000 186 62 12 255
2.274312 4.318508 0.039699 -0.000000 -0.000000 -1.000000 0.000000 0.000000 186 62 12 255
2.261743 4.653959 0.039699 -0.000000 0.000000 -1.000000 0.000000 0.000000 186 62 12 255
2.456506 4.392514 0.039699 -0.000000 0.000000 -1.000000 0.000000 0.000000 186 62 12 255
2.428576 4.718903 0.039699 -0.000000 0.000000 -1.000000 0.000000 0.000000 186 62 12 255
2.560891 4.462043 0.039699 -0.000000 0.000000 -1.000000 0.000000 0.000000 186 62 12 255
2.595409 4.783845 0.039699 -0.000000 0.000000 -1.000000 0.000000 0.000000 191 196 207 255
2.734340 4.514143 0.039699 -0.000000 0.000000 -1.000000 0.000000 0.000000 191 196 207 255
2.782090 4.810259 0.039699 -0.000000 0.000000 -1.000000 0.000000 0.000000 191 196 207 255
2.903302 4.613835 0.039699 -0.000000 0.000000 -1.000000 0.000000 0.000000 191 196 207 255
2.036023 4.784356 0.058471 0.000000 0.000000 -1.000000 0.000000 0.000000 138 111 113 255
1.544909 4.388391 0.058471 0.000000 0.000000 -1.000000 0.000000 0.000000 175 153 167 255
1.492289 4.549710 0.058471 0.000000 0.000000 -1.000000 0.000000 0.000000 138 111 113 255
2.036023 4.593706 0.058471 0.000000 0.000000 -1.000000 0.000000 0.000000 175 153 167 255
1.264271 3.449807 0.058471 0.000000 -0.000000 -1.000000 0.000000 0.000000 175 153 167 255
1.159033 3.948430 0.058471 0.000000 -0.000000 -1.000000 0.000000 0.000000 175 153 167 255
1.246732 4.183076 0.058471 0.000000 -0.000000 -1.000000 0.000000 0.000000 138 111 113 255
1.159033 3.625792 0.058471 0.000000 0.000000 -1.000000 0.000000 0.000000 175 153 167 255
1.316891 4.080419 0.058471 0.000000 0.000000 -1.000000 0.000000 0.000000 175 153 167 255
1.527369 3.141835 0.058471 0.000000 0.000000 -1.000000 0.000000 0.000000 175 153 167 255
2.036023 2.951185 0.058471 -0.000000 0.000000 -1.000000 0.000000 0.000000 175 153 167 255
2.421899 4.579041 0.058471 0.000000 0.000000 -1.000000 0.000000 0.000000 175 153 167 255
2.456979 4.740360 0.058471 -0.000000 -0.000000 -1.000000 0.000000 0.000000 138 111 113 255
2.334200 2.907189 0.058471 0.000000 0.000000 -1.000000 0.000000 0.000000 175 153 167 255
2.684997 4.549710 0.058471 0.000000 0.000000 -1.000000 0.000000 0.000000 175 153 167 255
2.720076 4.711029 0.058471 -0.000000 -0.000000 -1.000000 0.000000 0.000000 138 111 113 255
2.720076 4.535045 0.058471 0.000000 0.000000 -1.000000 0.000000 0.000000 175 153 167 255
2.737616 3.068508 0.058471 0.000000 0.000000 -1.000000 0.000000 0.000000 175 153 167 255
2.807775 4.667033 0.058471 -0.000000 -0.000000 -1.000000 0.000000 0.000000 138 111 113 255
2.825315 4.520380 0.058471 -0.000000 0.000000 -1.000000 0.000000 0.000000 138 111 113 255
2.825315 3.127170 0.058471 0.000000 0.000000 -1.000000 0.000000 0.000000 138 111 113 255
3.512397 4.283784 0.077242 0.000000 0.000000 -1.000000 0.000000 0.000000 157 52 13 255
3.557029 3.619510 0.077242 0.000000 0.000000 -1.000000 0.000000 0.000000 186 62 12 255
3.193651 3.684454 0.077242 0.000000 0.000000 -1.000000 0.000000 0.000000 186 62 12 255
3.975176 4.021839 0.077242 -0.000000 -0.000000 -1.000000 0.000000 0.000000 157 108 103 255
3.975176 4.593788 0.077242 -0.000000 -0.000000 -1.000000 0.000000 0.000000 157 108 103 255
4.168115 4.564457 0.077242 -0.000000 -0.000000 -1.000000 0.000000 0.000000 157 108 103 255
4.168115 3.992508 0.077242 -0.000000 0.000000 -1.000000 0.000000 0.000000 157 108 103 255
4.027796 3.845855 0.077242 -0.000000 -0.000000 -1.000000 0.000000 0.000000 157 108 103 255
4.115495 3.816524 0.077242 0.000000 0.000000 -1.000000 0.000000 0.000000 157 108 103 255
4.168115 3.816524 0.077242 0.000000 0.000000 -1.000000 0.000000 0.000000 157 108 103 255
2.772696 3.596462 0.077242 0.000000 0.000000 -1.000000 0.000000 0.000000 186 62 12 255
2.755156 4.608372 0.077242 0.000000 0.000000 -1.000000 0.000000 0.000000 186 62 12 255
3.922557 4.593788 0.077242 0.000000 0.000000 -1.000000 0.000000 0.000000 186 62 12 255
3.828337 3.857313 0.077242 0.000000 0.000000 -1.000000 0.000000 0.000000 186 62 12 255
3.193651 3.669788 0.096014 0.000000 0.000000 -1.000000 0.000000 0.000000 157 52 13 255
2.755156 3.112504 0.096014 0.000000 0.000000 -1.000000 0.000000 0.000000 186 62 12 255
2.755156 3.669788 0.096014 0.000000 0.000000 -1.000000 0.000000 0.000000 157 52 13 255
3.158571 2.995182 0.096014 0.000000 0.000000 -1.000000 0.000000 0.000000 186 62 12 255
3.922557 3.814423 0.096014 0.000000 0.000000 -1.000000 0.000000 0.000000 157 52 13 255
3.932272 3.340319 0.096014 0.000000 0.000000 -1.000000 0.000000 0.000000 157 108 103 255
3.882632 3.316569 0.096014 0.000000 0.000000 -1.000000 0.000000 0.000000 186 62 12 255
3.975176 3.814423 0.096014 0.000000 0.000000 -1.000000 0.000000 0.000000 157 108 103 255
4.072083 3.811401 0.096014 -0.000000 0.000000 -1.000000 0.000000 0.000000 157 108 103 255
4.129348 3.330974 0.096014 -0.000000 0.000000 -1.000000 0.000000 0.000000 157 108 103 255
4.011285 3.176029 0.096014 -0.000000 -0.000000 -1.000000 0.000000 0.000000 157 108 103 255
4.121861 3.151207 0.096014 0.000000 0.000000 -1.000000 0.000000 0.000000 157 108 103 255
4.156462 3.157398 0.096014 0.000000 0.000000 -1.000000 0.000000 0.000000 157 108 103 255
3.449860 2.909009 0.096014 -0.000000 -0.000000 -1.000000 0.000000 0.000000 186 62 12 255
3.517356 3.365173 0.096014 -0.000000 -0.000000 -1.000000 0.000000 0.000000 157 52 13 255
1.869399 3.491244 0.114786 0.000000 0.000000 -1.000000 0.000000 0.000000 186 62 12 255
2.106183 2.877858 0.114786 0.000000 0.000000 -1.000000 0.000000 0.000000 186 62 12 255
1.913245 2.965850 0.114786 0.000000 0.000000 -1.000000 0.000000 0.000000 186 62 12 255
1.913245 2.892524 0.114786 0.000000 0.000000 -1.000000 0.000000 0.000000 186 62 12 255
2.106183 2.804531 0.114786 0.000000 0.000000 -1.000000 0.000000 0.000000 186 62 12 255
1.895705 2.745870 0.114786 0.000000 -0.000000 -1.000000 0.000000 0.000000 191 196 207 255
2.106183 2.657878 0.114786 0.000000 0.000000 -1.000000 0.000000 0.000000 191 196 207 255
1.930785 2.540555 0.114786 0.000000 0.000000 -1.000000 0.000000 0.000000 191 196 207 255
2.071103 2.481894 0.114786 0.000000 0.000000 -1.000000 0.000000 0.000000 191 196 207 255
1.374788 2.794653 0.002156 0.000000 0.000000 1.000000 1.000000 0.150221 169 128 41 255
2.083631 2.714501 0.002156 0.000000 0.000000 1.000000 0.000000 0.380452 169 127 43 255
1.398095 2.900343 0.002156 0.000000 0.000000 1.000000 0.000000 0.149498 170 128 45 255
3.038341 4.576529 0.077242 0.000000 0.000000 -1.000000 0.000000 0.000000 170 57 13 255
3.038341 4.576529 0.077242 -0.000000 -0.000000 -1.000000 0.000000 0.000000 186 62 12 255
0.834808 3.393233 0.002156 0.000000 -0.000000 1.000000 0.000000 0.000000 168 126 37 255
0.662037 3.389095 0.002156 0.000000 -0.000000 1.000000 0.070716 0.000000 198 172 92 255
0.810643 3.298556 0.002156 0.000000 -0.000000 1.000000 0.083675 0.000000 183 156 66 255
0.482488 2.677646 0.002156 0.000000 0.000000 1.000000 1.000000 0.000000 186 160 81 255
0.774245 2.778476 0.002156 0.000000 0.000000 1.000000 0.921192 0.000000 198 172 93 255
0.191359 3.419110 0.002156 0.000000 -0.000000 1.000000 0.000000 0.000000 169 128 42 255
0.073441 3.312423 0.002156 0.000000 -0.000000 1.000000 0.000000 0.000000 168 126 36 255
0.121757 3.270587 0.002156 0.000000 -0.000000 1.000000 0.210505 0.000000 198 172 93 255
0.023916 3.107882 0.002156 0.000000 -0.000000 1.000000 1.000000 0.000000 183 156 66 255
0.226682 3.351786 0.002156 -0.000000 0.000000 1.000000 0.108704 0.000000 198 172 93 255
0.956628 3.030079 0.002156 -0.000000 0.000000 1.000000 0.000000 0.000000 170 128 46 255
0.953959 3.251470 0.002156 -0.000000 0.000000 1.000000 0.000000 0.000000 168 126 37 255
0.891672 3.157809 0.002156 -0.000000 0.000000 1.000000 0.097412 0.000000 193 167 84 255
0.823660 2.713333 0.002156 -0.000000 0.000000 1.000000 1.000000 0.000000 168 126 36 255
0.926607 2.906093 0.002156 -0.000000 0.000000 1.000000 1.000000 0.000000 168 126 36 255
0.879193 2.983019 0.002156 -0.000000 0.000000 1.000000 0.509959 0.000000 198 172 93 255
0.654765 2.649655 0.002156 0.000000 -0.000000 1.000000 1.000000 0.000000 168 126 36 255
0.443217 3.487377 0.002156 0.000000 0.000000 1.000000 0.089983 0.000000 198 172 93 255
0.268636 2.766346 0.002156 0.000000 -0.000000 1.000000 1.000000 0.000000 183 156 66 255
0.078826 2.954342 0.002156 0.000000 0.000000 1.000000 1.000000 0.000000 183 156 66 255
1.852720 2.650648 -0.091703 0.000000 0.000000 1.000000 1.000000 0.000000 191 196 207 255
1.982688 2.751458 -0.091703 0.000000 0.000000 1.000000 0.000000 1.000000 168 171 174 255
1.902546 2.770054 -0.091703 0.000000 0.000000 1.000000 0.000000 0.000000 168 171 174 255
1.918405 2.627220 -0.091703 0.000000 0.000000 1.000000 1.000000 1.000000 191 196 207 255
2.057273 2.609639 0.002156 0.000000 0.000000 1.000000 1.000000 0.380146 171 130 49 255
3.445637 2.390364 0.002156 0.000000 -0.000000 1.000000 0.000000 1.000000 168 126 37 255
3.404926 2.222224 0.002156 -0.000000 -0.000000 1.000000 1.000000 1.000000 175 137 72 255
3 0 1 2
3 0 3 1
3 0 4 5
3 0 6 3
3 0 5 6
3 7 8 9
3 7 10 8
3 11 10 7
3 11 12 10
3 12 13 10
3 13 12 14
3 15 14 12
3 15 12 11
3 15 16 17
3 15 17 14
3 18 19 20
3 18 20 21
3 21 17 16
3 21 20 17
3 20 14 17
3 20 19 22
3 20 22 23
3 20 23 14
3 23 24 25
3 23 25 14
3 23 22 24
3 26 27 28
3 26 28 29
3 4 0 2
3 4 2 29
3 4 30 5
3 27 31 28
3 32 4 29
3 32 30 4
3 28 32 29
3 30 33 5
3 30 34 35
3 31 27 36
3 37 38 39
3 40 33 30
3 41 38 37
3 42 35 43
3 44 31 36
3 36 34 44
3 34 30 45
3 34 45 44
3 34 43 35
3 43 34 46
3 47 36 48
3 47 34 36
3 47 49 50
3 47 50 46
3 49 51 50
3 49 48 51
3 49 47 48
3 46 34 47
3 46 50 52
3 52 53 46
3 54 55 56
3 56 55 57
3 58 59 60
3 61 62 58
3 61 58 63
3 64 65 66
3 67 68 69
3 67 69 65
3 66 70 71
3 66 72 64
3 66 73 70
3 72 71 74
3 72 66 71
3 69 73 65
3 73 66 65
3 75 72 74
3 75 74 76
3 77 69 68
3 77 78 69
3 79 80 81
3 79 82 80
3 83 84 82
3 83 82 79
3 85 75 76
3 86 87 88
3 87 89 90
3 91 92 93
3 94 95 86
3 96 97 98
3 99 100 101
3 102 103 97
3 102 104 103
3 105 103 104
3 105 106 103
3 105 107 108
3 105 108 106
3 90 89 109
3 92 110 111
3 112 113 114
3 115 109 116
3 111 117 118
3 107 119 120
3 107 120 108
3 120 96 98
3 120 119 96
3 121 122 123
3 124 125 126
3 123 127 128
3 123 129 127
3 123 130 129
3 131 132 133
3 134 135 136
3 134 136 137
3 122 130 123
3 138 139 134
3 138 134 140
3 141 142 143
3 141 144 142
3 145 144 141
3 145 146 144
3 146 145 147
3 146 147 148
3 148 147 149
3 149 147 150
3 150 147 151
3 150 151 152
3 150 152 153
3 153 152 154
3 153 154 155
3 154 156 157
3 154 157 155
3 156 158 159
3 156 159 157
3 158 160 161
3 158 161 159
3 160 162 163
3 160 163 161
3 164 165 166
3 164 167 165
3 168 169 170
3 168 171 169
3 172 173 170
3 172 165 174
3 172 174 173
3 173 168 170
3 165 170 166
3 165 172 170
3 165 167 174
3 167 175 174
3 175 164 176
3 175 167 164
3 175 177 174
3 175 178 177
3 178 176 179
3 178 175 176
3 178 180 181
3 178 181 177
3 180 179 182
3 180 182 183
3 180 183 184
3 180 184 181
3 180 178 179
3 185 186 187
3 188 189 190
3 188 190 191
3 192 188 191
3 191 193 192
3 191 194 193
3 187 195 196
3 197 189 188
3 197 188 198
3 198 185 197
3 198 186 185
3 199 200 201
3 199 202 200
3 203 204 205
3 203 206 204
3 204 206 207
3 204 207 208
3 209 204 208
3 208 210 209
3 208 211 210
3 212 199 213
3 212 202 199
3 205 213 203
3 205 212 213
3 214 215 216
3 215 217 216
3 215 218 217
3 218 219 217
3 218 220 219
3 220 221 219
3 220 222 221
3 223 224 225
3 226 185 187
3 187 196 227
3 228 229 230
3 231 232 229
3 233 234 235
3 234 236 235
3 237 233 235
3 238 239 240
3 239 228 230
3 240 239 230
3 241 242 232
3 242 238 243
3 232 244 241
3 243 232 242
3 233 237 245
3 240 243 238
3 231 244 232
3 232 243 229
3 243 240 230
3 229 243 230
3 229 245 231
3 245 237 246
3 237 235 247
3 235 236 247
3 247 246 237
3 246 231 245
3 248 249 250
3 248 251 249
3 223 252 224
3 242 223 225
3 242 225 238
3 224 252 253
3 253 252 254
