ply
format ascii 1.0
comment Created by Blender 2.83.4 - www.blender.org, source file: 'gullerod.blend'
element vertex 276
property float x
property float y
property float z
property float nx
property float ny
property float nz
property uchar red
property uchar green
property uchar blue
property uchar alpha
element face 251
property list uchar uint vertex_indices
end_header
2.343750 0.640000 0.000000 0.000000 0.000000 -1.000000 183 156 66 255
2.468750 0.580000 0.000000 0.000000 0.000000 -1.000000 168 171 174 255
2.328125 0.580000 0.000000 0.000000 0.000000 -1.000000 198 172 93 255
2.453125 0.640000 0.000000 0.000000 0.000000 -1.000000 183 156 66 255
2.250000 0.640000 0.000000 0.000000 -0.000000 -1.000000 198 172 93 255
2.343750 0.680000 0.000000 0.000000 -0.000000 -1.000000 198 172 93 255
2.453125 0.660000 0.000000 -0.000000 0.000000 -1.000000 198 172 93 255
1.671875 0.780000 0.000000 0.000000 -0.000000 1.000000 191 196 207 255
1.562500 0.600000 0.000000 0.000000 -0.000000 1.000000 191 196 207 255
1.812500 0.600000 0.000000 0.000000 -0.000000 1.000000 191 196 207 255
1.296875 0.740000 0.000000 0.000000 -0.000000 1.000000 191 196 207 255
1.562500 0.820000 0.000000 0.000000 -0.000000 1.000000 191 196 207 255
1.468750 0.860000 0.000000 -0.000000 0.000000 1.000000 191 196 207 255
1.375000 0.880000 0.000000 -0.000000 0.000000 1.000000 191 196 207 255
1.468750 1.040000 0.000000 0.000000 0.000000 1.000000 168 171 174 255
1.593750 0.940000 0.000000 -0.000000 0.000000 1.000000 191 196 207 255
2.015625 0.920000 0.000000 0.000000 0.000000 1.000000 191 196 207 255
1.921875 0.940000 0.000000 0.000000 0.000000 1.000000 191 196 207 255
2.531250 1.040000 0.000000 0.000000 0.000000 1.000000 191 196 207 255
2.640625 1.100000 0.000000 0.000000 0.000000 1.000000 191 196 207 255
2.171875 1.140000 0.000000 0.000000 0.000000 1.000000 191 196 207 255
2.187500 1.080000 0.000000 -0.000000 -0.000000 1.000000 191 196 207 255
2.656250 1.300000 0.000000 0.000000 0.000000 1.000000 191 196 207 255
2.187500 1.320000 0.000000 0.000000 0.000000 1.000000 191 196 207 255
2.531250 1.440000 0.000000 0.000000 0.000000 1.000000 168 171 174 255
2.062500 1.460000 0.000000 0.000000 0.000000 1.000000 168 171 174 255
1.812500 0.600000 0.000000 0.000000 -0.000000 -1.000000 198 172 93 255
1.765625 0.660000 0.000000 0.000000 -0.000000 -1.000000 198 172 93 255
2.015625 0.680000 0.000000 0.000000 -0.000000 -1.000000 198 172 93 255
2.156250 0.580000 0.000000 -0.000000 0.000000 -1.000000 198 172 93 255
2.250000 0.680000 0.000000 -0.000000 -0.000000 -1.000000 198 172 93 255
1.984375 0.700000 0.000000 -0.000000 0.000000 -1.000000 198 172 93 255
2.171875 0.660000 0.000000 0.000000 0.000000 -1.000000 198 172 93 255
2.343750 0.700000 0.000000 -0.000000 0.000000 -1.000000 198 172 93 255
2.296875 0.780000 0.000000 -0.000000 0.000000 -1.000000 198 172 93 255
2.343750 0.720000 0.000000 -0.000000 0.000000 -1.000000 198 172 93 255
1.671875 0.780000 0.000000 0.000000 0.000000 -1.000000 198 172 93 255
2.343750 0.720000 0.000000 0.000000 0.000000 0.000000 198 172 93 255
2.343750 0.720000 0.000000 0.000000 0.000000 0.000000 198 172 93 255
2.250000 0.680000 0.000000 0.000000 0.000000 0.000000 198 172 93 255
2.343750 0.720000 0.000000 0.000000 0.000000 -1.000000 198 172 93 255
2.453125 0.720000 0.000000 0.000000 0.000000 0.000000 198 172 93 255
2.453125 0.720000 0.000000 0.000000 -0.000000 -1.000000 198 172 93 255
2.437500 0.780000 0.000000 0.000000 -0.000000 -1.000000 198 172 93 255
2.062500 0.740000 0.000000 0.000000 0.000000 -1.000000 198 172 93 255
2.187500 0.720000 0.000000 0.000000 0.000000 -1.000000 198 172 93 255
2.593750 0.900000 0.000000 0.000000 -0.000000 -1.000000 198 172 93 255
1.750000 0.840000 0.000000 0.000000 0.000000 -1.000000 198 172 93 255
1.562500 0.820000 0.000000 0.000000 0.000000 -1.000000 198 172 93 255
1.718750 0.860000 0.000000 0.000000 -0.000000 -1.000000 198 172 93 255
2.015625 0.920000 0.000000 0.000000 -0.000000 -1.000000 198 172 93 255
1.593750 0.940000 0.000000 -0.000000 -0.000000 -1.000000 183 156 66 255
2.187500 1.080000 0.000000 0.000000 -0.000000 -1.000000 198 172 93 255
2.531250 1.040000 0.000000 0.000000 0.000000 -1.000000 0 255 0 255
2.421875 0.700000 0.020000 0.000000 0.000000 0.000000 144 159 174 255
2.421875 0.700000 0.020000 0.000000 0.000000 0.000000 144 159 174 255
2.453125 0.700000 0.020000 0.000000 0.000000 0.000000 144 159 174 255
2.421875 0.700000 0.020000 0.000000 0.000000 0.000000 144 159 174 255
2.453125 0.700000 0.020000 0.000000 -0.000000 -1.000000 144 159 174 255
2.421875 0.700000 0.020000 0.000000 -0.000000 -1.000000 144 159 174 255
2.453125 0.720000 0.020000 0.000000 -0.000000 -1.000000 144 159 174 255
2.437500 0.680000 0.020000 -0.000000 -0.000000 -1.000000 175 153 167 255
2.421875 0.700000 0.020000 -0.000000 -0.000000 -1.000000 144 159 174 255
2.453125 0.680000 0.020000 -0.000000 0.000000 -1.000000 144 159 174 255
1.156250 0.080000 0.020000 0.000000 0.000000 1.000000 186 62 12 255
1.890625 0.020000 0.020000 0.000000 0.000000 1.000000 186 62 12 255
1.203125 0.340000 0.020000 0.000000 0.000000 1.000000 186 62 12 255
2.375000 0.180000 0.020000 0.000000 0.000000 1.000000 186 62 12 255
2.468750 0.500000 0.020000 0.000000 0.000000 1.000000 186 62 12 255
1.812500 0.520000 0.020000 0.000000 0.000000 1.000000 186 62 12 255
1.296875 0.560000 0.020000 -0.000000 0.000000 1.000000 157 52 13 255
1.093750 0.440000 0.020000 -0.000000 0.000000 1.000000 157 52 13 255
0.734375 0.360000 0.020000 -0.000000 -0.000000 1.000000 186 62 12 255
1.562500 0.540000 0.020000 0.000000 0.000000 1.000000 186 62 12 255
0.546875 0.360000 0.020000 0.000000 0.000000 1.000000 186 62 12 255
0.781250 0.460000 0.020000 0.000000 0.000000 1.000000 186 62 12 255
0.578125 0.560000 0.020000 -0.000000 0.000000 1.000000 186 62 12 255
0.671875 0.560000 0.020000 0.000000 0.000000 1.000000 157 52 13 255
0.515625 0.620000 0.020000 -0.000000 -0.000000 1.000000 186 62 12 255
0.781250 0.720000 0.020000 -0.000000 0.000000 1.000000 186 62 12 255
2.468750 0.580000 0.020000 0.000000 -0.000000 1.000000 186 62 12 255
1.812500 0.600000 0.020000 -0.000000 0.000000 1.000000 186 62 12 255
1.562500 0.600000 0.020000 0.000000 0.000000 -1.000000 186 62 12 255
1.296875 0.560000 0.020000 0.000000 0.000000 -1.000000 157 52 13 255
1.296875 0.740000 0.020000 0.000000 0.000000 -1.000000 186 62 12 255
1.562500 0.540000 0.020000 0.000000 0.000000 -1.000000 186 62 12 255
1.812500 0.600000 0.020000 0.000000 0.000000 -1.000000 186 62 12 255
1.812500 0.520000 0.020000 0.000000 0.000000 -1.000000 186 62 12 255
2.453125 0.660000 0.020000 0.000000 -0.000000 -1.000000 191 196 207 255
2.343750 0.680000 0.020000 0.000000 -0.000000 -1.000000 191 196 207 255
2.421875 0.700000 0.020000 0.000000 -0.000000 -1.000000 191 196 207 255
2.343750 0.700000 0.020000 -0.000000 -0.000000 -1.000000 191 196 207 255
2.421875 0.700000 0.020000 -0.000000 -0.000000 -1.000000 191 196 207 255
2.343750 0.680000 0.020000 0.000000 0.000000 0.000000 191 196 207 255
2.421875 0.700000 0.020000 0.000000 0.000000 0.000000 191 196 207 255
2.421875 0.700000 0.020000 0.000000 0.000000 0.000000 191 196 207 255
2.437500 0.680000 0.020000 0.000000 0.000000 -1.000000 191 196 207 255
2.453125 0.680000 0.020000 0.000000 0.000000 -1.000000 191 196 207 255
2.093750 0.700000 0.020000 0.000000 0.000000 -1.000000 191 196 207 255
2.015625 0.680000 0.020000 0.000000 0.000000 -1.000000 191 196 207 255
1.984375 0.700000 0.020000 0.000000 0.000000 -1.000000 191 196 207 255
2.093750 0.700000 0.020000 0.000000 0.000000 0.000000 191 196 207 255
2.093750 0.700000 0.020000 0.000000 0.000000 0.000000 191 196 207 255
2.015625 0.680000 0.020000 0.000000 0.000000 0.000000 191 196 207 255
2.093750 0.700000 0.020000 0.000000 0.000000 -1.000000 191 196 207 255
2.171875 0.660000 0.020000 0.000000 0.000000 -1.000000 191 196 207 255
2.156250 0.680000 0.020000 0.000000 0.000000 -1.000000 191 196 207 255
2.171875 0.700000 0.020000 0.000000 0.000000 -1.000000 191 196 207 255
2.250000 0.680000 0.020000 0.000000 0.000000 -1.000000 191 196 207 255
2.156250 0.720000 0.020000 -0.000000 -0.000000 -1.000000 191 196 207 255
2.187500 0.720000 0.020000 -0.000000 -0.000000 -1.000000 191 196 207 255
2.343750 0.720000 0.020000 0.000000 0.000000 -1.000000 191 196 207 255
2.343750 0.720000 0.020000 0.000000 0.000000 0.000000 191 196 207 255
2.421875 0.700000 0.020000 0.000000 0.000000 0.000000 191 196 207 255
2.437500 0.680000 0.020000 0.000000 0.000000 0.000000 191 196 207 255
2.453125 0.660000 0.020000 0.000000 0.000000 0.000000 191 196 207 255
2.421875 0.700000 0.020000 -0.000000 -0.000000 -1.000000 191 196 207 255
2.453125 0.720000 0.020000 -0.000000 -0.000000 -1.000000 191 196 207 255
2.453125 0.720000 0.020000 0.000000 0.000000 0.000000 191 196 207 255
2.453125 0.720000 0.020000 0.000000 0.000000 0.000000 191 196 207 255
2.093750 0.720000 0.020000 0.000000 0.000000 -1.000000 191 196 207 255
2.062500 0.740000 0.020000 0.000000 0.000000 -1.000000 191 196 207 255
2.046875 0.700000 0.040000 -0.000000 -0.000000 -1.000000 144 159 174 255
2.046875 0.740000 0.040000 -0.000000 -0.000000 -1.000000 144 159 174 255
2.125000 0.700000 0.040000 -0.000000 -0.000000 -1.000000 144 159 174 255
2.093750 0.700000 0.040000 0.000000 0.000000 0.000000 144 159 174 255
2.046875 0.700000 0.040000 0.000000 0.000000 0.000000 144 159 174 255
2.125000 0.700000 0.040000 0.000000 0.000000 0.000000 144 159 174 255
2.156250 0.680000 0.040000 0.000000 0.000000 -1.000000 144 159 174 255
2.093750 0.700000 0.040000 0.000000 0.000000 -1.000000 144 159 174 255
2.171875 0.700000 0.040000 0.000000 0.000000 -1.000000 144 159 174 255
2.171875 0.740000 0.040000 -0.000000 0.000000 -1.000000 144 159 174 255
2.421875 0.700000 0.040000 0.000000 0.000000 0.000000 144 159 174 255
2.421875 0.700000 0.040000 0.000000 0.000000 0.000000 144 159 174 255
2.453125 0.700000 0.040000 0.000000 0.000000 0.000000 144 159 174 255
2.453125 0.700000 0.040000 0.000000 0.000000 -1.000000 144 159 174 255
2.421875 0.700000 0.040000 0.000000 0.000000 -1.000000 144 159 174 255
2.421875 0.720000 0.040000 0.000000 0.000000 -1.000000 144 159 174 255
2.453125 0.720000 0.040000 -0.000000 -0.000000 -1.000000 144 159 174 255
2.437500 0.680000 0.040000 -0.000000 -0.000000 -1.000000 175 153 167 255
2.421875 0.700000 0.040000 -0.000000 -0.000000 -1.000000 144 159 174 255
2.453125 0.680000 0.040000 -0.000000 0.000000 -1.000000 144 159 174 255
1.918361 1.405465 0.040000 -0.000000 0.000000 -1.000000 186 62 12 255
2.209620 1.475489 0.040000 -0.000000 0.000000 -1.000000 186 62 12 255
2.060292 1.399889 0.040000 -0.000000 0.000000 -1.000000 186 62 12 255
2.259575 1.601229 0.040000 -0.000000 0.000000 -1.000000 186 62 12 255
1.785865 1.472320 0.040000 -0.000000 0.000000 -1.000000 186 62 12 255
2.258826 1.761989 0.040000 -0.000000 0.000000 -1.000000 186 62 12 255
1.643185 1.638655 0.040000 0.000000 0.000000 -1.000000 186 62 12 255
2.184431 1.875000 0.040000 0.000000 -0.000000 -1.000000 186 62 12 255
1.529555 1.828068 0.040000 0.000000 -0.000000 -1.000000 186 62 12 255
2.049147 2.122510 0.040000 0.000000 -0.000000 -1.000000 186 62 12 255
1.781367 2.436876 0.040000 0.000000 -0.000000 -1.000000 186 62 12 255
1.476064 2.043742 0.040000 0.000000 0.000000 -1.000000 186 62 12 255
1.475315 2.204502 0.040000 0.000000 0.000000 -1.000000 186 62 12 255
1.825186 2.541884 0.040000 0.000000 -0.000000 -1.000000 186 62 12 255
1.469742 2.565813 0.040000 0.000000 0.000000 -1.000000 186 62 12 255
1.837944 2.724131 0.040000 0.000000 -0.000000 -1.000000 186 62 12 255
1.503404 2.850722 0.040000 0.000000 0.000000 -1.000000 186 62 12 255
1.846628 2.946170 0.040000 0.000000 0.000000 -1.000000 186 62 12 255
1.514125 3.052864 0.040000 0.000000 0.000000 -1.000000 186 62 12 255
1.825001 3.084687 0.040000 0.000000 0.000000 -1.000000 186 62 12 255
1.524846 3.255007 0.040000 0.000000 0.000000 -1.000000 191 196 207 255
1.851265 3.288421 0.040000 0.000000 0.000000 -1.000000 191 196 207 255
1.582198 3.461923 0.040000 0.000000 0.000000 -1.000000 191 196 207 255
1.828862 3.507277 0.040000 0.000000 0.000000 -1.000000 191 196 207 255
0.968750 2.320000 0.060000 0.000000 0.000000 -1.000000 138 111 113 255
1.390625 1.760000 0.060000 0.000000 0.000000 -1.000000 175 153 167 255
1.218750 1.700000 0.060000 0.000000 0.000000 -1.000000 138 111 113 255
1.171875 2.320000 0.060000 0.000000 0.000000 -1.000000 175 153 167 255
2.390625 1.440000 0.060000 0.000000 0.000000 -1.000000 175 153 167 255
1.859375 1.320000 0.060000 0.000000 0.000000 -1.000000 175 153 167 255
1.609375 1.420000 0.060000 0.000000 0.000000 -1.000000 138 111 113 255
2.203125 1.320000 0.060000 0.000000 0.000000 -1.000000 175 153 167 255
1.718750 1.500000 0.060000 -0.000000 0.000000 -1.000000 175 153 167 255
2.718750 1.740000 0.060000 -0.000000 0.000000 -1.000000 175 153 167 255
2.921875 2.320000 0.060000 0.000000 -0.000000 -1.000000 175 153 167 255
1.187500 2.760000 0.060000 -0.000000 0.000000 -1.000000 175 153 167 255
1.015625 2.800000 0.060000 0.000000 -0.000000 -1.000000 138 111 113 255
2.968750 2.660000 0.060000 0.000000 0.000000 -1.000000 175 153 167 255
1.218750 3.060000 0.060000 -0.000000 0.000000 -1.000000 175 153 167 255
1.046875 3.100000 0.060000 0.000000 -0.000000 -1.000000 138 111 113 255
1.234375 3.100000 0.060000 0.000000 0.000000 -1.000000 175 153 167 255
2.796875 3.120000 0.060000 0.000000 0.000000 -1.000000 175 153 167 255
1.093750 3.200000 0.060000 0.000000 -0.000000 -1.000000 138 111 113 255
1.250000 3.220000 0.060000 0.000000 -0.000000 -1.000000 138 111 113 255
2.734375 3.220000 0.060000 -0.000000 0.000000 -1.000000 138 111 113 255
2.134282 3.994547 0.080000 0.000000 0.000000 -1.000000 157 52 13 255
2.854779 3.589119 0.080000 0.000000 0.000000 -1.000000 186 62 12 255
2.507091 3.176756 0.080000 0.000000 0.000000 -1.000000 186 62 12 255
3.312327 4.487583 0.080000 0.000000 -0.000000 -1.000000 157 108 103 255
2.629987 4.490643 0.080000 0.000000 -0.000000 -1.000000 157 108 103 255
2.672283 4.648083 0.080000 0.000000 -0.000000 -1.000000 157 108 103 255
3.244246 4.678017 0.080000 0.000000 -0.000000 -1.000000 157 108 103 255
3.503544 4.534404 0.080000 0.000000 0.000000 -1.000000 157 108 103 255
2.676454 4.707940 0.080000 0.000000 -0.000000 -1.000000 157 108 103 255
3.541670 4.631990 0.080000 0.000000 0.000000 -1.000000 157 108 103 255
3.247027 4.717920 0.080000 0.000000 -0.000000 -1.000000 157 108 103 255
3.545840 4.691846 0.080000 -0.000000 0.000000 -1.000000 157 108 103 255
2.252999 2.758233 0.080000 0.000000 0.000000 -1.000000 186 62 12 255
1.305234 2.741930 0.080000 0.000000 0.000000 -1.000000 186 62 12 255
2.605991 4.462371 0.080000 -0.000000 0.000000 -1.000000 186 62 12 255
2.954079 4.075838 0.080000 -0.000000 0.000000 -1.000000 186 62 12 255
2.156250 3.640000 0.100000 0.000000 0.000000 -1.000000 157 52 13 255
2.750000 3.140000 0.100000 0.000000 0.000000 -1.000000 186 62 12 255
2.156250 3.140000 0.100000 0.000000 0.000000 -1.000000 157 52 13 255
2.875000 3.600000 0.100000 0.000000 0.000000 -1.000000 186 62 12 255
2.198794 4.484728 0.100000 -0.000000 0.000000 -1.000000 157 52 13 255
2.698794 4.524728 0.100000 -0.000000 0.000000 -1.000000 157 108 103 255
2.714419 4.464728 0.100000 -0.000000 0.000000 -1.000000 186 62 12 255
2.198794 4.544728 0.100000 -0.000000 -0.000000 -1.000000 157 108 103 255
2.230044 4.704728 0.100000 0.000000 -0.000000 -1.000000 157 108 103 255
2.745669 4.704728 0.100000 -0.000000 -0.000000 -1.000000 157 108 103 255
2.886294 4.584728 0.100000 0.000000 -0.000000 -1.000000 157 108 103 255
2.745669 4.744728 0.100000 -0.000000 0.000000 -1.000000 157 108 103 255
2.230044 4.764728 0.100000 -0.000000 -0.000000 -1.000000 157 108 103 255
2.933169 4.704728 0.100000 0.000000 0.000000 -1.000000 157 108 103 255
2.933169 4.744728 0.100000 -0.000000 -0.000000 -1.000000 157 108 103 255
2.730044 3.964728 0.100000 0.000000 -0.000000 -1.000000 186 62 12 255
2.198794 4.024728 0.100000 0.000000 -0.000000 -1.000000 157 52 13 255
1.593750 1.640000 0.120000 0.000000 0.000000 -1.000000 186 62 12 255
2.078125 1.580000 0.120000 0.000000 0.000000 -1.000000 186 62 12 255
1.796875 1.540000 0.120000 0.000000 0.000000 -1.000000 186 62 12 255
2.234375 1.740000 0.120000 -0.000000 0.000000 -1.000000 186 62 12 255
1.625000 1.840000 0.120000 0.000000 -0.000000 -1.000000 186 62 12 255
2.265625 1.880000 0.120000 0.000000 -0.000000 -1.000000 186 62 12 255
2.220004 2.094554 0.120000 -0.000000 0.000000 -1.000000 186 62 12 255
1.693173 2.108111 0.120000 -0.000000 0.000000 -1.000000 186 62 12 255
1.783758 2.270908 0.120000 0.000000 0.000000 -1.000000 186 62 12 255
1.760860 2.413003 0.120000 0.000000 0.000000 -1.000000 186 62 12 255
2.220004 2.094554 0.120000 -0.000000 -0.000000 1.000000 186 62 12 255
1.760860 2.413003 0.120000 -0.000000 -0.000000 1.000000 186 62 12 255
2.079435 2.145694 0.120000 -0.000000 -0.000000 1.000000 186 62 12 255
2.079435 2.145694 0.120000 -0.000000 -0.000000 -1.000000 186 62 12 255
2.759058 2.340893 0.120000 -0.000000 -0.000000 -1.000000 186 62 12 255
2.641288 2.132760 0.120000 -0.000000 0.000000 -1.000000 186 62 12 255
2.718922 2.124021 0.120000 0.000000 0.000000 -1.000000 186 62 12 255
2.836693 2.332154 0.120000 0.000000 0.000000 -1.000000 186 62 12 255
2.871955 2.086668 0.120000 0.000000 0.000000 -1.000000 191 196 207 255
2.991963 2.314675 0.120000 0.000000 0.000000 -1.000000 191 196 207 255
3.093806 2.101948 0.120000 0.000000 0.000000 -1.000000 191 196 207 255
3.173811 2.253952 0.120000 0.000000 0.000000 -1.000000 191 196 207 255
3.022693 1.616977 0.000000 -0.000000 -0.000000 1.000000 169 128 41 255
2.885419 2.418488 0.000000 -0.000000 -0.000000 1.000000 169 127 43 255
2.907273 1.611326 0.000000 -0.000000 -0.000000 1.000000 170 128 45 255
1.546855 3.362182 0.080000 0.000000 -0.000000 -1.000000 186 62 12 255
1.700583 3.579597 0.080000 0.000000 -0.000000 -1.000000 170 57 13 255
2.576941 0.847596 0.000000 0.000000 0.000000 1.000000 168 126 37 255
2.634637 0.659233 0.000000 0.000000 0.000000 1.000000 198 172 92 255
2.681350 0.849052 0.000000 0.000000 0.000000 1.000000 183 156 66 255
3.418586 0.672402 0.000000 -0.000000 0.000000 1.000000 186 160 81 255
3.225078 0.962764 0.000000 -0.000000 0.000000 1.000000 198 172 93 255
2.601724 0.390080 0.000000 0.000000 0.000000 1.000000 170 129 46 255
2.749547 0.133878 0.000000 0.000000 0.000000 1.000000 169 128 42 255
2.688627 0.406146 0.000000 0.000000 0.000000 1.000000 198 172 93 255
2.895261 0.036004 0.000000 0.000000 0.000000 1.000000 168 126 36 255
2.923144 0.101383 0.000000 0.000000 0.000000 1.000000 198 172 93 255
3.119998 0.042089 0.000000 0.000000 0.000000 1.000000 183 156 66 255
2.807544 0.192529 0.000000 0.000000 -0.000000 1.000000 198 172 93 255
2.563004 0.649236 0.000000 0.000000 -0.000000 1.000000 168 127 39 255
2.911050 1.088564 0.000000 0.000000 -0.000000 1.000000 170 128 46 255
2.685212 1.020226 0.000000 0.000000 -0.000000 1.000000 168 126 37 255
2.800377 0.979549 0.000000 0.000000 -0.000000 1.000000 193 167 84 255
3.276483 1.036235 0.000000 -0.000000 -0.000000 1.000000 168 126 36 255
3.047277 1.092252 0.000000 -0.000000 -0.000000 1.000000 168 126 36 255
2.983190 1.017495 0.000000 0.000000 -0.000000 1.000000 198 172 93 255
3.393936 0.869716 0.000000 0.000000 0.000000 1.000000 168 126 36 255
3.393946 0.411530 0.000000 0.000000 0.000000 1.000000 183 156 66 255
3.260203 0.147704 0.000000 0.000000 0.000000 1.000000 183 156 66 255
2.967288 2.026613 -0.100000 -0.000000 0.000000 1.000000 191 196 207 255
2.877133 2.185895 -0.100000 -0.000000 0.000000 1.000000 168 171 174 255
2.847222 2.097303 -0.100000 -0.000000 0.000000 1.000000 168 171 174 255
3.000471 2.098249 -0.100000 0.000000 0.000000 1.000000 191 196 207 255
3.000935 2.420545 0.000000 -0.000000 0.000000 1.000000 171 130 49 255
2.795839 4.008817 0.000000 0.000000 0.000000 1.000000 168 126 37 255
2.980579 4.013817 0.000000 0.000000 0.000000 1.000000 175 137 72 255
3 0 1 2
3 0 3 1
3 0 4 5
3 0 6 3
3 0 5 6
3 7 8 9
3 7 10 8
3 11 10 7
3 11 12 10
3 12 13 10
3 13 12 14
3 15 14 12
3 15 12 11
3 15 16 17
3 15 17 14
3 18 19 20
3 18 20 21
3 21 17 16
3 21 20 17
3 20 14 17
3 20 19 22
3 20 22 23
3 20 23 14
3 23 24 25
3 23 25 14
3 23 22 24
3 26 27 28
3 26 28 29
3 4 0 2
3 4 2 29
3 4 30 5
3 27 31 28
3 32 4 29
3 32 30 4
3 28 32 29
3 30 33 5
3 30 34 35
3 31 27 36
3 37 38 39
3 40 33 30
3 41 38 37
3 42 35 43
3 44 31 36
3 36 34 44
3 34 30 45
3 34 45 44
3 34 43 35
3 43 34 46
3 47 36 48
3 47 34 36
3 47 49 50
3 47 50 46
3 49 51 50
3 49 48 51
3 49 47 48
3 46 34 47
3 46 50 52
3 52 53 46
3 54 55 56
3 56 55 57
3 58 59 60
3 61 62 58
3 61 58 63
3 64 65 66
3 67 68 69
3 67 69 65
3 66 70 71
3 66 72 64
3 66 73 70
3 74 64 72
3 72 71 75
3 72 66 71
3 72 76 74
3 69 73 65
3 73 66 65
3 76 72 75
3 76 75 77
3 76 78 74
3 76 79 78
3 80 69 68
3 80 81 69
3 82 83 84
3 82 85 83
3 86 87 85
3 86 85 82
3 79 76 77
3 88 89 90
3 89 91 92
3 93 94 95
3 96 97 88
3 98 99 100
3 101 102 103
3 104 105 99
3 104 106 105
3 107 105 106
3 107 108 105
3 107 109 110
3 107 110 108
3 92 91 111
3 94 112 113
3 95 114 115
3 116 111 117
3 113 118 119
3 109 120 121
3 109 121 110
3 121 98 100
3 121 120 98
3 122 123 124
3 125 126 127
3 124 128 129
3 124 130 128
3 124 131 130
3 132 133 134
3 135 136 137
3 135 137 138
3 123 131 124
3 139 140 135
3 139 135 141
3 142 143 144
3 142 145 143
3 146 145 142
3 146 147 145
3 147 146 148
3 147 148 149
3 149 150 151
3 150 149 148
3 151 150 152
3 152 150 153
3 152 153 154
3 152 154 155
3 155 154 156
3 155 156 157
3 156 158 159
3 156 159 157
3 158 160 161
3 158 161 159
3 160 162 163
3 160 163 161
3 162 164 165
3 162 165 163
3 166 167 168
3 166 169 167
3 170 171 172
3 170 173 171
3 174 175 172
3 174 167 176
3 174 176 175
3 175 170 172
3 167 172 168
3 167 174 172
3 167 169 176
3 169 177 176
3 177 166 178
3 177 169 166
3 177 179 176
3 177 180 179
3 180 178 181
3 180 177 178
3 180 182 183
3 180 183 179
3 182 181 184
3 182 184 185
3 182 185 186
3 182 186 183
3 182 180 181
3 187 188 189
3 190 191 192
3 190 192 193
3 194 190 193
3 193 192 195
3 193 196 194
3 193 195 197
3 193 197 198
3 193 198 196
3 189 199 200
3 201 191 190
3 201 190 202
3 202 187 201
3 202 188 187
3 203 204 205
3 203 206 204
3 207 208 209
3 207 210 208
3 208 210 211
3 208 211 212
3 213 208 212
3 211 214 212
3 211 215 214
3 212 216 213
3 212 214 217
3 212 217 216
3 218 203 219
3 218 206 203
3 209 219 207
3 209 218 219
3 220 221 222
3 220 223 221
3 223 220 224
3 223 224 225
3 224 226 225
3 224 227 226
3 226 228 229
3 230 231 232
3 233 229 234
3 233 234 235
3 234 236 235
3 234 237 236
3 237 238 236
3 237 239 238
3 239 240 238
3 239 241 240
3 242 243 244
3 189 245 246
3 246 187 189
3 189 200 245
3 247 248 249
3 250 251 248
3 252 253 254
3 253 255 256
3 255 257 256
3 258 253 256
3 247 259 248
3 259 252 248
3 260 261 262
3 261 247 249
3 262 261 249
3 263 264 251
3 264 260 265
3 251 266 263
3 265 251 264
3 253 258 254
3 262 265 260
3 252 254 248
3 250 266 251
3 251 265 248
3 265 262 249
3 248 265 249
3 248 254 250
3 254 258 267
3 258 256 268
3 256 257 268
3 268 267 258
3 267 250 254
3 269 270 271
3 269 272 270
3 242 273 243
3 264 242 244
3 264 244 260
3 243 273 274
3 274 273 275
3 226 227 228
