ply
format ascii 1.0
comment Created by Blender 2.83.4 - www.blender.org, source file: 'gullerod.blend'
element vertex 114
property float x
property float y
property float z
property float nx
property float ny
property float nz
property float s
property float t
property uchar red
property uchar green
property uchar blue
property uchar alpha
element face 98
property list uchar uint vertex_indices
end_header
-0.407169 3.893623 0.000000 0.000000 0.000000 1.000000 0.419208 0.151943 233 85 59 255
0.216396 3.246671 0.000000 0.000000 0.000000 1.000000 0.692110 0.307890 247 105 62 255
-0.030753 3.985542 0.000000 0.000000 0.000000 1.000000 0.340346 0.311373 247 108 68 255
-1.005263 3.747571 0.000000 0.000000 0.000000 1.000000 0.494367 0.000000 240 114 58 255
-0.274759 3.054830 0.000000 0.000000 0.000000 1.000000 0.847363 0.152637 233 85 59 255
1.084637 4.257915 0.000000 0.000000 0.000000 1.000000 0.194460 0.606299 247 104 61 255
1.667827 4.158660 0.000000 0.000000 0.000000 1.000000 0.246740 0.753260 247 104 61 255
1.646305 4.395072 0.000000 0.000000 0.000000 1.000000 0.122505 0.751765 247 104 61 255
0.688963 4.161293 0.000000 0.000000 0.000000 1.000000 0.262558 0.468632 233 85 59 255
1.214321 3.854309 0.000000 0.000000 0.000000 1.000000 0.391488 0.608512 247 104 61 255
1.946270 4.399006 0.000000 0.000000 0.000000 1.000000 0.163937 0.836063 233 85 59 255
1.930295 4.464421 0.000000 0.000000 0.000000 1.000000 0.082539 0.833570 233 85 59 255
0.735823 3.623411 0.000000 0.000000 0.000000 1.000000 0.540304 0.459696 233 85 59 255
2.572434 4.621229 0.000000 0.000000 0.000000 1.000000 0.082539 0.833570 247 104 61 255
-1.194181 3.458600 -2.000000 0.000000 0.000000 1.000000 0.235906 0.743471 216 197 0 255
-1.084262 2.974149 -2.000000 0.000000 0.000000 1.000000 0.732603 0.734424 216 197 0 255
-0.650973 2.833806 -2.000000 0.000000 0.000000 1.000000 1.000000 1.000000 192 169 17 255
-1.546664 2.883524 -1.000000 0.000000 0.000000 1.000000 0.298756 0.000000 51 216 11 255
-1.198375 2.902322 -1.000000 0.000000 0.000000 1.000000 1.000000 1.000000 65 218 43 255
-1.246476 3.042088 -1.000000 0.000000 0.000000 1.000000 0.407747 1.000000 91 222 77 255
-1.707094 3.340273 -1.000000 0.000000 0.000000 1.000000 0.298756 0.000000 51 216 11 255
-1.349147 3.319520 -1.000000 0.000000 0.000000 1.000000 1.000000 1.000000 65 218 43 255
-1.397247 3.459285 -1.000000 0.000000 0.000000 1.000000 0.407747 1.000000 91 222 77 255
-0.834785 3.497387 -1.000000 0.000000 0.000000 1.000000 1.000000 1.000000 65 218 43 255
-0.882885 3.637153 -1.000000 0.000000 0.000000 1.000000 0.407747 1.000000 91 222 77 255
-0.684013 3.080189 -1.000000 0.000000 0.000000 1.000000 1.000000 1.000000 65 218 43 255
-0.732113 3.219955 -1.000000 0.000000 0.000000 1.000000 0.407747 1.000000 91 222 77 255
-1.411704 2.677736 -1.000000 -0.000000 -0.000000 1.000000 1.000000 0.000000 49 216 0 255
-1.678587 2.706465 -1.000000 -0.000000 -0.000000 1.000000 0.298756 0.000000 51 216 11 255
-1.543627 2.500676 -1.000000 -0.000000 -0.000000 1.000000 1.000000 0.000000 49 216 0 255
-1.624190 3.126628 -1.000000 -0.000000 -0.000000 1.000000 1.000000 0.000000 49 216 0 255
-1.890860 3.183586 -1.000000 -0.000000 -0.000000 1.000000 0.298756 0.000000 51 216 11 255
-1.730616 2.968434 -1.000000 -0.000000 -0.000000 1.000000 1.000000 0.000000 49 216 0 255
-0.434011 3.988454 -1.000000 0.000000 0.000000 1.000000 0.588700 0.000000 216 197 1 255
0.335192 3.963753 -1.000000 0.000000 0.000000 1.000000 1.000000 1.000000 216 197 2 255
0.281119 4.326472 -1.000000 0.000000 0.000000 1.000000 0.596105 1.000000 216 197 0 255
-0.151972 4.755164 0.000000 -0.000000 0.000000 1.000000 0.692110 0.307890 247 105 62 255
-0.676267 4.699037 0.000000 -0.000000 0.000000 1.000000 0.847363 0.152637 233 85 59 255
-1.129518 4.685457 0.000000 -0.000000 0.000000 1.000000 1.000000 0.000000 247 107 65 255
1.556441 4.614796 0.000000 0.000000 0.000000 1.000000 0.246740 0.753260 247 104 61 255
1.013700 4.675866 0.000000 0.000000 0.000000 1.000000 0.391488 0.608512 247 104 61 255
0.482635 4.660233 0.000000 -0.000000 0.000000 1.000000 0.540304 0.459696 233 85 59 255
1.914321 4.529838 0.000000 0.000000 -0.000000 1.000000 0.163937 0.836063 233 85 59 255
-1.112009 4.721785 -2.000000 0.000000 -0.000000 1.000000 1.000000 1.000000 192 172 13 255
-1.431846 4.397531 -2.000000 0.000000 -0.000000 1.000000 0.732603 0.734424 216 197 0 255
-1.306107 3.916944 -2.000000 0.000000 -0.000000 1.000000 0.235906 0.743471 216 197 0 255
-1.566221 4.408679 -1.000000 0.000000 -0.000000 1.000000 1.000000 1.000000 65 218 43 255
-1.883974 4.264832 -1.000000 0.000000 -0.000000 1.000000 0.298756 0.000000 51 216 11 255
-1.544488 4.262474 -1.000000 0.000000 -0.000000 1.000000 0.407747 1.000000 91 222 77 255
-1.507734 3.968945 -1.000000 0.000000 -0.000000 1.000000 1.000000 1.000000 65 218 43 255
-1.815828 3.785548 -1.000000 0.000000 -0.000000 1.000000 0.298756 0.000000 51 216 11 255
-1.486001 3.822741 -1.000000 0.000000 -0.000000 1.000000 0.407747 1.000000 91 222 77 255
-0.973758 3.898934 -1.000000 -0.000000 -0.000000 1.000000 0.407747 1.000000 91 222 77 255
-1.032246 4.338668 -1.000000 -0.000000 -0.000000 1.000000 0.407747 1.000000 91 222 77 255
-1.859053 4.509663 -1.000000 0.000000 -0.000000 1.000000 1.000000 0.000000 49 216 0 255
-2.082656 4.361158 -1.000000 0.000000 -0.000000 1.000000 0.298756 0.000000 51 216 11 255
-1.840725 4.013357 -1.000000 0.000000 -0.000000 1.000000 1.000000 0.000000 49 216 0 255
-2.051129 3.839901 -1.000000 0.000000 -0.000000 1.000000 0.298756 0.000000 51 216 11 255
0.937725 4.249228 -1.000000 0.000000 0.000000 1.000000 0.596105 1.000000 192 172 13 255
0.971792 4.020714 -1.000000 0.000000 0.000000 1.000000 1.000000 1.000000 192 172 13 255
1.301162 4.238785 -1.000000 0.000000 0.000000 1.000000 0.596105 1.000000 214 195 12 255
-0.450245 3.666568 -1.000000 0.000000 -0.000000 1.000000 1.000000 0.000000 176 158 43 255
-0.327273 3.637604 -1.000000 0.000000 -0.000000 1.000000 1.000000 0.000000 176 158 43 255
1.335228 4.010271 -1.000000 0.000000 0.000000 1.000000 1.000000 1.000000 215 196 8 255
1.349413 4.210303 -1.000000 0.000000 0.000000 1.000000 0.596105 1.000000 214 195 12 255
2.019450 4.491937 -1.000000 0.000000 -0.000000 1.000000 0.298756 0.000000 0 0 255 255
1.631181 4.216116 -1.000000 0.000000 -0.000000 1.000000 1.000000 0.000000 1 6 255 255
2.072325 4.344259 -1.000000 0.000000 -0.000000 1.000000 1.000000 0.000000 0 6 255 255
2.465050 4.502104 -1.000000 0.000000 0.000000 1.000000 1.000000 0.000000 0 0 255 255
2.449213 4.580009 -1.000000 0.000000 0.000000 1.000000 0.298756 0.000000 17 69 241 255
2.588462 4.532241 -1.000000 0.000000 0.000000 1.000000 1.000000 0.000000 0 0 255 255
2.576449 4.622451 -1.000000 0.000000 0.000000 1.000000 0.298756 0.000000 0 0 255 255
2.491246 4.463800 -1.000000 0.000000 -0.000000 1.000000 1.000000 0.000000 0 0 255 255
2.608215 4.492364 -1.000000 0.000000 -0.000000 1.000000 1.000000 0.000000 6 27 253 255
-0.683255 2.857975 0.000000 0.000000 0.000000 1.000000 1.000000 0.000000 247 107 65 255
-0.996847 3.749625 -2.000000 0.000000 -0.000000 1.000000 0.000000 1.000000 192 169 17 255
-1.715705 3.574084 -2.000000 0.000000 -0.000000 1.000000 0.000000 0.417769 216 197 0 255
-1.526109 3.142853 -2.000000 0.000000 -0.000000 1.000000 0.463898 0.399675 216 197 1 255
-1.288191 2.649097 -2.000000 0.000000 -0.000000 1.000000 1.000000 0.526336 216 197 0 255
-1.762642 4.592007 -2.000000 0.000000 -0.000000 1.000000 1.000000 0.526336 216 197 6 255
-1.746206 4.044165 -2.000000 0.000000 -0.000000 1.000000 0.463898 0.399675 221 196 21 255
-0.995491 4.045139 -1.000000 -0.000000 0.000000 1.000000 1.000000 1.000000 65 218 43 255
-1.053978 4.484873 -1.000000 -0.000000 0.000000 1.000000 1.000000 1.000000 65 218 43 255
-2.057735 4.605989 -1.000000 -0.000000 0.000000 1.000000 1.000000 0.000000 49 216 0 255
-2.008086 4.104694 -1.000000 -0.000000 0.000000 1.000000 1.000000 0.000000 49 216 0 255
-0.522446 3.903896 -1.000000 0.000000 -0.000000 1.000000 0.588700 0.000000 216 197 1 255
1.376082 4.031409 -1.000000 0.000000 0.000000 1.000000 1.000000 1.000000 215 196 8 255
1.527844 4.439466 -1.000000 0.000000 -0.000000 1.000000 0.298756 0.000000 1 4 255 255
1.915058 4.651093 1.000000 0.000000 -0.000000 1.000000 0.298756 0.000000 249 0 255 255
1.562213 4.428760 1.000000 0.000000 -0.000000 1.000000 1.000000 0.000000 255 0 255 255
1.957077 4.540545 1.000000 0.000000 -0.000000 1.000000 1.000000 0.000000 255 0 255 255
2.310026 4.673332 1.000000 0.000000 0.000000 1.000000 1.000000 0.000000 255 0 255 255
2.296660 4.739731 1.000000 0.000000 0.000000 1.000000 0.298756 0.000000 255 1 255 255
2.421091 4.697047 1.000000 0.000000 0.000000 1.000000 1.000000 0.000000 244 0 255 255
2.410356 4.777657 1.000000 0.000000 0.000000 1.000000 0.298756 0.000000 237 0 255 255
2.334220 4.635889 1.000000 0.000000 -0.000000 1.000000 1.000000 0.000000 255 0 255 255
2.438742 4.661414 1.000000 0.000000 -0.000000 1.000000 1.000000 0.000000 210 16 254 255
1.477967 4.595195 1.000000 0.000000 -0.000000 1.000000 0.298756 0.000000 242 1 255 255
-0.535344 3.946099 1.000000 0.000000 0.000000 1.000000 0.588700 0.000000 216 197 1 255
0.206651 3.773708 1.000000 0.000000 0.000000 1.000000 1.000000 1.000000 216 197 2 255
0.147684 4.090678 1.000000 0.000000 0.000000 1.000000 0.596105 1.000000 216 197 0 255
0.727007 4.043557 1.000000 0.000000 0.000000 1.000000 0.596105 1.000000 192 172 13 255
0.764156 3.843865 1.000000 -0.000000 0.000000 1.000000 1.000000 1.000000 192 172 13 255
1.046647 4.045864 1.000000 -0.000000 0.000000 1.000000 0.596105 1.000000 214 195 12 255
-0.580988 3.666453 1.000000 0.000000 -0.000000 1.000000 1.000000 0.000000 176 158 43 255
-0.476378 3.629128 1.000000 0.000000 -0.000000 1.000000 1.000000 0.000000 176 158 43 255
1.083796 3.846172 1.000000 0.000000 0.000000 1.000000 1.000000 1.000000 215 196 8 255
1.089939 4.022364 1.000000 0.000000 0.000000 1.000000 0.596105 1.000000 214 195 12 255
-0.620875 3.880863 1.000000 0.000000 -0.000000 1.000000 0.588700 0.000000 216 197 1 255
1.119021 3.866034 1.000000 0.000000 0.000000 1.000000 1.000000 1.000000 215 196 8 255
-0.515031 3.007335 2.000000 -0.000000 0.000000 1.000000 1.000000 0.000000 50 216 4 255
0.984040 3.975720 2.000000 -0.000000 0.000000 1.000000 0.000000 1.000000 49 216 2 255
-0.579207 3.125305 2.000000 -0.000000 0.000000 1.000000 0.000000 0.000000 49 216 0 255
1.048216 3.857750 2.000000 0.000000 0.000000 1.000000 1.000000 1.000000 79 219 62 255
3 0 1 2
3 3 4 0
3 5 6 7
3 8 9 5
3 7 10 11
3 2 12 8
3 11 10 13
3 14 15 16
3 17 18 19
3 20 21 22
3 22 23 24
3 19 25 26
3 27 28 29
3 30 31 32
3 33 34 35
3 0 36 37
3 3 37 38
3 5 39 40
3 8 40 41
3 42 7 11
3 2 41 36
3 11 13 42
3 43 44 45
3 46 47 48
3 49 50 51
3 52 49 51
3 53 46 48
3 54 55 47
3 56 57 50
3 34 58 35
3 59 60 58
3 33 61 62
3 63 64 60
3 65 66 67
3 65 68 69
3 69 70 71
3 70 72 73
3 0 4 1
3 3 74 4
3 5 9 6
3 8 12 9
3 7 6 10
3 2 1 12
3 75 76 14
3 14 77 15
3 15 78 16
3 16 75 14
3 17 27 18
3 20 30 21
3 22 21 23
3 19 18 25
3 27 17 28
3 30 20 31
3 33 62 34
3 0 2 36
3 3 0 37
3 5 7 39
3 8 5 40
3 42 39 7
3 2 8 41
3 45 76 75
3 43 79 44
3 44 80 45
3 45 75 43
3 46 54 47
3 49 56 50
3 52 81 49
3 53 82 46
3 54 83 55
3 56 84 57
3 34 59 58
3 59 63 60
3 33 85 61
3 63 86 64
3 65 87 66
3 65 67 68
3 69 68 70
3 70 68 72
3 88 89 90
3 88 91 92
3 92 93 94
3 93 95 96
3 88 97 89
3 88 90 91
3 92 91 93
3 93 91 95
3 98 99 100
3 99 101 100
3 102 103 101
3 98 104 105
3 106 107 103
3 98 105 99
3 99 102 101
3 102 106 103
3 98 108 104
3 106 109 107
3 110 111 112
3 110 113 111
