ply
format ascii 1.0
comment Created by Blender 2.83.4 - www.blender.org, source file: 'gullerod-step.blend'
element vertex 114
property float x
property float y
property float z
property float nx
property float ny
property float nz
property uchar red
property uchar green
property uchar blue
property uchar alpha
element face 98
property list uchar uint vertex_indices
end_header
0.000000 1.754541 0.000000 -0.000000 0.000000 1.000000 233 85 59 255
0.776409 2.171734 0.000000 -0.000000 0.000000 1.000000 247 105 62 255
0.000000 2.111950 0.000000 -0.000000 0.000000 1.000000 247 108 68 255
0.846260 1.689649 0.000000 -0.000000 0.000000 1.000000 233 85 59 255
0.000000 1.186649 0.000000 -0.000000 0.000000 1.000000 240 114 58 255
0.000000 3.171016 0.000000 0.000000 0.000000 1.000000 247 104 61 255
0.234769 3.671875 0.000000 0.000000 0.000000 1.000000 247 104 61 255
0.000000 3.704321 0.000000 0.000000 0.000000 1.000000 247 104 61 255
0.000000 2.795322 0.000000 -0.000000 0.000000 1.000000 233 85 59 255
0.422849 3.198906 0.000000 -0.000000 0.000000 1.000000 247 104 61 255
0.067338 3.973970 0.000000 -0.000000 0.000000 1.000000 233 85 59 255
0.000000 3.973970 0.000000 -0.000000 0.000000 1.000000 233 85 59 255
0.533645 2.719614 0.000000 0.000000 0.000000 1.000000 233 85 59 255
0.000000 4.583683 0.000000 0.000000 0.000000 1.000000 247 104 61 255
0.235906 0.954134 -2.000000 0.000000 0.000000 1.000000 216 197 0 255
0.732603 0.946623 -2.000000 0.000000 0.000000 1.000000 216 197 0 255
0.971727 1.304171 -2.000000 0.000000 0.000000 1.000000 192 169 17 255
0.710948 0.512449 -1.000000 -0.000000 0.000000 1.000000 51 216 11 255
0.775310 0.828653 -1.000000 -0.000000 0.000000 1.000000 65 218 43 255
0.628123 0.816135 -1.000000 -0.000000 0.000000 1.000000 91 222 77 255
0.229180 0.468637 -1.000000 -0.000000 0.000000 1.000000 51 216 11 255
0.334254 0.784841 -1.000000 -0.000000 0.000000 1.000000 65 218 43 255
0.187067 0.772323 -1.000000 -0.000000 0.000000 1.000000 91 222 77 255
0.283483 1.284665 -1.000000 -0.000000 0.000000 1.000000 65 218 43 255
0.136297 1.272147 -1.000000 -0.000000 0.000000 1.000000 91 222 77 255
0.724539 1.328477 -1.000000 -0.000000 0.000000 1.000000 65 218 43 255
0.577353 1.315959 -1.000000 -0.000000 0.000000 1.000000 91 222 77 255
0.942878 0.588353 -1.000000 0.000000 -0.000000 1.000000 49 216 0 255
0.851658 0.355494 -1.000000 0.000000 -0.000000 1.000000 51 216 11 255
1.083588 0.431397 -1.000000 0.000000 -0.000000 1.000000 49 216 0 255
0.456393 0.496176 -1.000000 0.000000 -0.000000 1.000000 49 216 0 255
0.337800 0.269685 -1.000000 0.000000 -0.000000 1.000000 51 216 11 255
0.584824 0.366195 -1.000000 0.000000 -0.000000 1.000000 49 216 0 255
-0.122193 1.803378 -1.000000 0.000000 0.000000 1.000000 216 197 1 255
0.485646 2.420876 -1.000000 0.000000 0.000000 1.000000 216 197 2 255
0.143118 2.551882 -1.000000 0.000000 0.000000 1.000000 216 197 0 255
-0.776409 2.171734 0.000000 -0.000000 0.000000 1.000000 247 105 62 255
-0.846260 1.689649 0.000000 -0.000000 0.000000 1.000000 233 85 59 255
-0.940590 1.280532 0.000000 -0.000000 0.000000 1.000000 247 107 65 255
-0.234769 3.671875 0.000000 -0.000000 0.000000 1.000000 247 104 61 255
-0.422849 3.198906 0.000000 -0.000000 0.000000 1.000000 247 104 61 255
-0.533645 2.719614 0.000000 -0.000000 0.000000 1.000000 233 85 59 255
-0.067338 3.973970 0.000000 0.000000 0.000000 1.000000 233 85 59 255
-0.971727 1.304171 -2.000000 0.000000 0.000000 1.000000 192 172 13 255
-0.732603 0.946623 -2.000000 0.000000 0.000000 1.000000 216 197 0 255
-0.235906 0.954134 -2.000000 0.000000 0.000000 1.000000 216 197 0 255
-0.775310 0.828653 -1.000000 0.000000 0.000000 1.000000 65 218 43 255
-0.710948 0.512449 -1.000000 0.000000 0.000000 1.000000 51 216 11 255
-0.628123 0.816135 -1.000000 0.000000 0.000000 1.000000 91 222 77 255
-0.334254 0.784841 -1.000000 0.000000 0.000000 1.000000 65 218 43 255
-0.229180 0.468637 -1.000000 0.000000 0.000000 1.000000 51 216 11 255
-0.187067 0.772323 -1.000000 0.000000 0.000000 1.000000 91 222 77 255
-0.139569 1.248000 -1.000000 0.000000 -0.000000 1.000000 91 222 77 255
-0.580625 1.291812 -1.000000 0.000000 -0.000000 1.000000 91 222 77 255
-0.942878 0.588353 -1.000000 0.000000 0.000000 1.000000 49 216 0 255
-0.851658 0.355494 -1.000000 0.000000 0.000000 1.000000 51 216 11 255
-0.456393 0.496176 -1.000000 0.000000 0.000000 1.000000 49 216 0 255
-0.337800 0.269685 -1.000000 0.000000 0.000000 1.000000 51 216 11 255
0.532831 3.085944 -1.000000 -0.000000 0.000000 1.000000 192 172 13 255
0.748625 3.003409 -1.000000 -0.000000 0.000000 1.000000 192 172 13 255
0.720392 3.397418 -1.000000 -0.000000 0.000000 1.000000 214 195 12 255
0.122009 1.593046 -1.000000 0.000000 0.000000 1.000000 176 158 43 255
0.220336 1.672372 -1.000000 0.000000 0.000000 1.000000 176 158 43 255
0.936187 3.314884 -1.000000 -0.000000 0.000000 1.000000 215 196 8 255
0.768898 3.425465 -1.000000 -0.000000 0.000000 1.000000 214 195 12 255
0.168686 4.106339 -1.000000 0.000000 -0.000000 1.000000 0 0 255 255
0.085282 3.668686 -1.000000 0.000000 -0.000000 1.000000 1 6 255 255
0.318777 4.060770 -1.000000 0.000000 -0.000000 1.000000 0 6 255 255
0.414777 4.442255 -1.000000 -0.000000 0.000000 1.000000 0 0 255 255
0.335734 4.433760 -1.000000 -0.000000 0.000000 1.000000 17 69 241 255
0.396296 4.567942 -1.000000 -0.000000 0.000000 1.000000 0 0 255 255
0.305359 4.564403 -1.000000 -0.000000 0.000000 1.000000 0 0 255 255
0.455359 4.464759 -1.000000 0.000000 0.000000 1.000000 0 0 255 255
0.437842 4.583884 -1.000000 0.000000 0.000000 1.000000 6 27 253 255
0.940590 1.280532 0.000000 0.000000 0.000000 1.000000 247 107 65 255
0.000000 1.194640 -2.000000 0.000000 -0.000000 1.000000 192 169 17 255
0.000000 0.512083 -2.000000 0.000000 -0.000000 1.000000 216 197 0 255
0.463898 0.587613 -2.000000 0.000000 0.000000 1.000000 216 197 1 255
1.000000 0.692762 -2.000000 0.000000 0.000000 1.000000 216 197 0 255
-1.000000 0.692762 -2.000000 0.000000 -0.000000 1.000000 216 197 6 255
-0.463898 0.587613 -2.000000 0.000000 0.000000 1.000000 221 196 21 255
-0.286756 1.260518 -1.000000 -0.000000 0.000000 1.000000 65 218 43 255
-0.727811 1.304330 -1.000000 -0.000000 0.000000 1.000000 65 218 43 255
-1.083588 0.431397 -1.000000 0.000000 -0.000000 1.000000 49 216 0 255
-0.584824 0.366195 -1.000000 0.000000 -0.000000 1.000000 49 216 0 255
-0.109691 1.681664 -1.000000 0.000000 0.000000 1.000000 216 197 1 255
0.937833 3.360852 -1.000000 0.000000 0.000000 1.000000 215 196 8 255
-0.144341 3.757209 -1.000000 0.000000 -0.000000 1.000000 1 4 255 255
-0.154371 4.017018 1.000000 0.000000 0.000000 1.000000 249 0 255 255
0.039361 3.683797 1.000000 0.000000 0.000000 1.000000 255 0 255 255
-0.141312 4.134560 1.000000 0.000000 0.000000 1.000000 255 0 255 255
-0.515964 4.177468 1.000000 -0.000000 0.000000 1.000000 255 0 255 255
-0.534371 4.112287 1.000000 -0.000000 0.000000 1.000000 255 1 255 255
-0.625614 4.207050 1.000000 -0.000000 0.000000 1.000000 244 0 255 255
-0.652845 4.130424 1.000000 -0.000000 0.000000 1.000000 237 0 255 255
-0.520405 4.221824 1.000000 0.000000 0.000000 1.000000 255 0 255 255
-0.625057 4.246810 1.000000 0.000000 0.000000 1.000000 210 16 254 255
-0.098922 3.558593 1.000000 0.000000 0.000000 1.000000 242 1 255 255
-0.081384 1.612741 1.000000 0.000000 0.000000 1.000000 216 197 1 255
0.262105 2.292660 1.000000 0.000000 0.000000 1.000000 216 197 2 255
-0.059806 2.310570 1.000000 0.000000 0.000000 1.000000 216 197 0 255
0.123400 2.862178 1.000000 -0.000000 0.000000 1.000000 192 172 13 255
0.326205 2.850895 1.000000 -0.000000 0.000000 1.000000 192 172 13 255
0.196986 3.173240 1.000000 -0.000000 0.000000 1.000000 214 195 12 255
0.179451 1.502062 1.000000 0.000000 0.000000 1.000000 176 158 43 255
0.240526 1.594831 1.000000 0.000000 0.000000 1.000000 176 158 43 255
0.399790 3.161957 1.000000 -0.000000 0.000000 1.000000 215 196 8 255
0.230085 3.209722 1.000000 -0.000000 0.000000 1.000000 214 195 12 255
-0.038301 1.514177 1.000000 0.000000 0.000000 1.000000 216 197 1 255
0.388852 3.200889 1.000000 0.000000 0.000000 1.000000 215 196 8 255
0.835400 1.409776 2.000000 -0.000000 -0.000000 1.000000 50 216 4 255
0.250276 3.095781 2.000000 -0.000000 -0.000000 1.000000 49 216 2 255
0.705575 1.375418 2.000000 -0.000000 -0.000000 1.000000 49 216 0 255
0.380102 3.130140 2.000000 -0.000000 0.000000 1.000000 79 219 62 255
3 0 1 2
3 3 0 4
3 5 6 7
3 8 9 5
3 7 10 11
3 2 12 8
3 11 10 13
3 14 15 16
3 17 18 19
3 20 21 22
3 22 23 24
3 19 25 26
3 27 28 29
3 30 31 32
3 33 34 35
3 0 36 37
3 4 37 38
3 5 39 40
3 8 40 41
3 42 7 11
3 2 41 36
3 11 13 42
3 43 44 45
3 46 47 48
3 49 50 51
3 52 49 51
3 53 46 48
3 54 55 47
3 56 57 50
3 34 58 35
3 59 60 58
3 33 61 62
3 63 64 60
3 65 66 67
3 65 68 69
3 69 70 71
3 70 72 73
3 0 3 1
3 4 74 3
3 5 9 6
3 8 12 9
3 7 6 10
3 2 1 12
3 75 76 14
3 14 77 15
3 15 78 16
3 16 75 14
3 17 27 18
3 20 30 21
3 22 21 23
3 19 18 25
3 27 17 28
3 30 20 31
3 33 62 34
3 0 2 36
3 4 0 37
3 5 7 39
3 8 5 40
3 42 39 7
3 2 8 41
3 45 76 75
3 43 79 44
3 44 80 45
3 45 75 43
3 46 54 47
3 49 56 50
3 52 81 49
3 53 82 46
3 54 83 55
3 56 84 57
3 34 59 58
3 59 63 60
3 33 85 61
3 63 86 64
3 65 87 66
3 65 67 68
3 69 68 70
3 70 68 72
3 88 89 90
3 88 91 92
3 92 93 94
3 93 95 96
3 88 97 89
3 88 90 91
3 92 91 93
3 93 91 95
3 98 99 100
3 99 101 100
3 102 103 101
3 98 104 105
3 106 107 103
3 98 105 99
3 99 102 101
3 102 106 103
3 98 108 104
3 106 109 107
3 110 111 112
3 110 113 111
